<?xml version="1.0" standalone="no"?>
<!DOCTYPE svg PUBLIC "-//W3C//DTD SVG 1.1//EN" "http://www.w3.org/Graphics/SVG/1.1/DTD/svg11.dtd" >
<!--
Created with mf2outline.
-->
<svg xmlns="http://www.w3.org/2000/svg" xmlns:xlink="http://www.w3.org/1999/xlink" version="1.1">
<metadata>
Created by FontForge 20201107 at Wed Jan 24 02:48:27 2024
 By 
Copyright (c) 2024, Metaflop (http://www.metaflop.com), Simon Egli, Marco Mueller, Alexis Reigel, with Reserved Font Name Bespoke. Dual licensed under the GPL v3 (http://www.gnu.org/copyleft/gpl.html) and the OFL v1.1 (http://scripts.sil.org/OFL_web).
</metadata>
<defs>
<font id="Bespoke-2wMLT9IG-8" horiz-adv-x="622" >
  <font-face 
    font-family="Bespoke"
    font-weight="500"
    font-stretch="normal"
    units-per-em="1000"
    panose-1="2 0 5 3 0 0 0 0 0 0"
    ascent="800"
    descent="-200"
    x-height="765"
    cap-height="900"
    bbox="-75 -426 1208.01 1238"
    underline-thickness="50"
    underline-position="-100"
    unicode-range="U+0020-FB04"
  />
    <missing-glyph />
    <glyph glyph-name="fi" unicode="fi" horiz-adv-x="616" 
d="M24 677l-2 88h100l-2 98c-1 56 79 21 109 46c27 23 5 91 52 91h72c47 0 28 -68 56 -91c26 -22 88 2 106 -26l-92 -20c0 11 -9 14 -18 14c-4 0 -9 -1 -13 -1c-6 0 -10 1 -14 4c-11 8 -6 32 -23 32h-72c-17 0 -10 -24 -21 -32c-4 -3 -9 -4 -15 -4c-4 0 -9 1 -13 1
c-9 0 -17 -3 -17 -14l2 -98h303l15 -765h-97l-13 677h-206l13 -677h-97l-13 677h-100z" />
    <glyph glyph-name="guillemotright" unicode="&#x3e;&#x3e;" horiz-adv-x="616" 
d="M300 382l-140 -382h-101l140 382l-155 383h101zM549 382l-140 -382h-101l140 382l-155 383h101z" />
    <glyph glyph-name="guillemotleft" unicode="&#x3c;&#x3c;" horiz-adv-x="616" 
d="M153 382l155 -382h-101l-156 382l140 383h102zM401 382l156 -382h-101l-156 382l140 383h101z" />
    <glyph glyph-name="quotedblright" unicode="&#x2019;&#x2019;" horiz-adv-x="603" 
d="M85 608l89 292h101l-116 -292h-74zM400 900h100l-115 -292h-74z" />
    <glyph glyph-name="exclamdown" unicode="&#x21;&#x2018;" horiz-adv-x="385" 
d="M152 -400l-19 948h97l19 -948h-97zM176 809c22 0 11 -31 22 -42s43 0 43 -22c0 -21 -31 -9 -42 -20s2 -42 -20 -42s-11 31 -22 42s-43 -1 -43 21c0 21 31 10 42 21s-2 42 20 42z" />
    <glyph glyph-name="fl" unicode="fl" horiz-adv-x="648" 
d="M24 677l-2 88h101l-3 123c-1 44 63 17 86 37c22 19 3 75 41 75h36c30 0 26 -35 34 -59l1 -53c0 11 -16 3 -22 8c-5 4 -4 16 -12 16h-35c-8 0 -5 -12 -10 -16c-6 -5 -22 3 -22 -8l2 -123h102l2 -88h-102l14 -677h-97l-14 677h-100zM473 0l-20 990h97l20 -990h-97z" />
    <glyph glyph-name="questiondown" unicode="&#x3f;&#x2018;" horiz-adv-x="563" 
d="M262 548h96l9 -412h-97c-22 0 -28 -13 -28 -30c0 -15 4 -33 4 -49c0 -8 -1 -16 -4 -22c-13 -23 -61 -18 -60 -50l3 -156c1 -32 48 -27 62 -50c4 -7 5 -16 5 -26c0 -14 -2 -28 -2 -41c0 -19 5 -34 29 -34h97c13 0 20 5 24 12h24c0 -12 1 -24 1 -36c0 -35 -6 -64 -47 -64
h-98c-82 0 -28 115 -64 160c-32 39 -126 15 -127 79l-4 156c-1 64 94 40 124 79c10 13 12 32 12 53v43c0 35 6 64 47 64zM305 809c22 0 10 -31 21 -42s43 0 43 -22c0 -21 -31 -9 -42 -20s2 -42 -20 -42s-10 31 -21 42s-43 -1 -43 21c0 21 31 10 42 21s-2 42 20 42z" />
    <glyph glyph-name="endash" unicode="&#x2d;&#x2d;" horiz-adv-x="616" 
d="M33 338l-2 88h537l2 -88h-537z" />
    <glyph glyph-name="emdash" unicode="&#x2013;&#x2d;" horiz-adv-x="1074" 
d="M33 338l-2 88h995l2 -88h-995z" />
    <glyph glyph-name="quotedblleft" unicode="&#x2018;&#x2018;" horiz-adv-x="603" 
d="M72 608l115 292h75l-90 -292h-100zM413 900h74l-89 -292h-100z" />
    <glyph glyph-name="ring" unicode="&#x2da;" horiz-adv-x="275" 
d="M140 871h-40c-14 0 -5 -20 -11 -27s-24 -1 -24 -13l1 -42c0 -12 18 -6 24 -13c7 -7 -1 -27 13 -27h39c14 0 6 20 12 27s24 1 24 13l-1 42c0 12 -19 6 -25 13c-7 7 2 27 -12 27zM139 929c34 0 16 -49 34 -66s68 3 69 -32v-42c1 -35 -49 -15 -67 -32c-17 -17 2 -66 -32 -66
h-39c-34 0 -17 49 -35 66s-67 -3 -68 32l-1 42c-1 35 49 15 67 32c17 17 -2 66 32 66h40z" />
    <glyph glyph-name="rcaron" unicode="&#x159;" horiz-adv-x="386" 
d="M164 561c25 14 46 27 46 65c0 32 -13 72 -13 102c0 27 10 47 47 47l2 -88c-24 0 -31 -12 -31 -30c0 -21 9 -49 9 -71c0 -7 -1 -14 -4 -20c-11 -25 -56 -28 -55 -59l10 -507h-96l-16 765h97zM380 750l42 -234c-8 23 -45 27 -56 50c-3 7 -4 14 -4 23c0 21 6 46 6 65
s-6 33 -32 33h-90l-2 88h90c26 0 39 -10 46 -25zM314 1167h88l-103 -180h-118l-110 180h87l80 -103zM422 516c1 -3 2 -6 2 -9z" />
    <glyph glyph-name="Eng" unicode="&#x14a;" horiz-adv-x="819" 
d="M92 0l-18 900h100l453 -723l-15 723h97l22 -1116c1 -56 -81 -31 -108 -64c-11 -13 -12 -34 -12 -56v-10c0 -33 -2 -64 -40 -64h-72c-60 0 -33 76 -49 117l27 10v-14c0 -14 3 -25 20 -25h72c16 0 20 10 20 22c0 10 -2 22 -2 33c0 6 0 12 3 16c10 16 45 12 45 35l-5 216h-3
l-453 723l14 -723h-96z" />
    <glyph glyph-name="Q" unicode="Q" horiz-adv-x="917" 
d="M548 822h-212c-44 0 -49 -32 -49 -69c0 -12 1 -25 1 -37c0 -23 -3 -44 -14 -58c-32 -41 -131 -15 -130 -82l5 -252c1 -67 101 -41 134 -82c38 -46 -16 -164 68 -164h212c45 0 49 33 49 71l-115 124h121l18 -20c39 26 120 10 119 71l-5 252c-1 67 -101 41 -134 82
c-38 46 16 164 -68 164zM546 910c114 0 47 -162 102 -223c51 -57 197 -11 199 -111l5 -252c2 -95 -132 -59 -187 -103l205 -221h-120l-115 124c-2 -65 5 -134 -70 -134h-212c-114 0 -47 162 -102 223c-51 57 -197 11 -199 111l-5 252c-2 100 146 54 195 111
c52 61 -22 223 92 223h212z" />
    <glyph glyph-name="Abreve" unicode="&#x102;" horiz-adv-x="727" 
d="M13 0l283 900h100l318 -900h-103l-101 285h-314l-90 -285h-93zM531 1155l1 -52c1 -51 -72 -19 -98 -43c-25 -22 -3 -87 -47 -87h-76c-44 0 -25 65 -50 87c-27 24 -99 -8 -100 43l-1 52h77l1 -52c0 -12 9 -14 19 -14h14c6 0 11 0 15 -3c11 -8 6 -34 24 -34h75
c18 0 12 26 23 34c4 3 9 3 15 3h14c10 0 17 2 17 14l-1 52h78zM479 373l-135 383l-121 -383h256z" />
    <glyph glyph-name="i" unicode="i" horiz-adv-x="249" 
d="M76 0l-15 765h97l15 -765h-97zM107 1122c22 0 11 -32 23 -44s44 1 44 -22c0 -22 -32 -11 -43 -22c-11 -12 1 -43 -21 -43s-11 31 -23 43s-44 0 -44 23c0 22 33 10 44 21c11 12 -2 44 20 44z" />
    <glyph glyph-name="quoteright" unicode="&#x2019;" horiz-adv-x="334" 
d="M151 900h99l-116 -292h-73z" />
    <glyph glyph-name="Gbreve" unicode="&#x11e;" horiz-adv-x="937" 
d="M858 0h-97l-4 218c-39 -11 -91 -9 -115 -37c-44 -52 21 -191 -77 -191h-212c-114 0 -47 162 -102 223c-51 57 -197 11 -199 111l-5 252c-2 100 146 54 195 111c52 61 -22 223 92 223h212c111 0 51 -152 96 -217l-33 -23c-22 52 17 152 -61 152h-212
c-44 0 -49 -32 -49 -69c0 -12 1 -25 1 -37c0 -23 -3 -44 -14 -58c-32 -41 -131 -15 -130 -82l5 -252c1 -67 101 -41 134 -82c38 -46 -16 -164 68 -164h212c67 0 28 97 62 132s132 -3 131 64l-4 204h-303l-2 88h400zM626 1155l1 -52c1 -51 -72 -19 -98 -43
c-25 -22 -3 -87 -47 -87h-76c-44 0 -25 65 -50 87c-27 24 -99 -8 -100 43l-1 52h77l1 -52c0 -12 9 -14 19 -14h14c6 0 11 0 15 -3c11 -8 6 -34 24 -34h75c18 0 12 26 23 34c4 3 9 3 15 3h13c10 0 18 2 18 14l-1 52h78z" />
    <glyph glyph-name="Ohungarumlaut" unicode="&#x150;" horiz-adv-x="917" 
d="M283 967l99 180h117l-130 -180h-86zM579 1147h116l-129 -180h-87zM548 822h-212c-44 0 -49 -32 -49 -69c0 -12 1 -25 1 -37c0 -23 -3 -44 -14 -58c-32 -41 -131 -15 -130 -82l5 -252c1 -67 101 -41 134 -82c38 -46 -16 -164 68 -164h212c44 0 49 32 49 69
c0 12 -1 25 -1 37c0 23 3 44 14 58c32 41 131 15 130 82l-5 252c-1 67 -101 41 -134 82c-38 46 16 164 -68 164zM546 910c114 0 47 -162 102 -223c51 -57 197 -11 199 -111l5 -252c2 -100 -146 -54 -195 -111c-52 -61 22 -223 -92 -223h-212c-114 0 -47 162 -102 223
c-51 57 -197 11 -199 111l-5 252c-2 100 146 54 195 111c52 61 -22 223 92 223h212z" />
    <glyph glyph-name="racute" unicode="&#x155;" horiz-adv-x="386" 
d="M164 561c25 14 46 27 46 65c0 32 -13 72 -13 102c0 27 10 47 47 47l2 -88c-24 0 -31 -12 -31 -30c0 -21 9 -49 9 -71c0 -7 -1 -14 -4 -20c-11 -25 -56 -28 -55 -59l10 -507h-96l-16 765h97zM380 750l42 -234c-8 23 -45 27 -56 50c-3 7 -4 14 -4 23c0 21 6 46 6 65
s-6 33 -32 33h-90l-2 88h90c26 0 39 -10 46 -25zM284 1167h120l-140 -180h-88zM422 516c1 -3 2 -6 2 -9z" />
    <glyph glyph-name="udieresis" unicode="&#xfc;" 
d="M443 168c-30 -11 -51 -22 -51 -62c0 -23 6 -49 6 -71c0 -26 -8 -45 -41 -45h-98c-77 0 -29 109 -64 150c-32 38 -126 10 -127 74l-11 551h97l11 -551c1 -31 46 -24 61 -45c5 -7 6 -16 6 -27c0 -10 -1 -20 -1 -30c0 -19 4 -34 27 -34h97c21 0 25 12 25 29
c0 12 -2 26 -2 39c0 9 1 17 5 23c14 21 61 14 60 45l-11 551h96l16 -765h-97zM173 1122c22 0 10 -32 22 -44s45 1 45 -22c0 -22 -33 -11 -44 -22c-11 -12 1 -43 -21 -43s-10 31 -22 43s-44 0 -44 23c0 22 32 10 43 21c11 12 -1 44 21 44zM409 1122c22 0 10 -32 22 -44
s44 1 44 -22c0 -22 -32 -11 -43 -22c-11 -12 1 -43 -21 -43s-10 31 -22 43s-45 0 -45 23c0 22 33 10 44 21c11 12 -1 44 21 44z" />
    <glyph glyph-name="slash" unicode="/" horiz-adv-x="491" 
d="M27 -45l318 990h101l-318 -990h-101z" />
    <glyph glyph-name="asciitilde" unicode="~" horiz-adv-x="642" 
d="M181 321c0 -30 -37 -28 -37 -53h-97c-1 52 77 35 100 69c7 10 9 25 9 40c0 17 -3 36 -3 52c0 28 6 49 40 49c90 0 148 -103 238 -103c16 0 21 8 21 20c0 14 -7 33 -7 49c0 30 38 28 38 53h97c1 -52 -77 -35 -100 -69c-7 -10 -9 -25 -9 -40c0 -17 2 -36 2 -52
c0 -28 -6 -49 -40 -49c-90 0 -148 103 -238 103c-16 0 -21 -8 -21 -20c0 -14 7 -33 7 -49z" />
    <glyph glyph-name="section" unicode="&#xa7;" 
d="M213 -293l29 10c1 -20 1 -39 24 -39h97c20 0 22 16 22 33v12c0 11 1 22 6 29c15 18 61 5 60 36l-2 113c-1 31 -46 18 -61 36c-17 20 6 74 -32 74h-97c-64 0 -30 93 -64 126s-126 -2 -127 62l-2 102c-1 64 92 29 124 62c23 23 11 76 24 105c-9 26 -7 63 -27 79
c-35 29 -126 -12 -127 52l-2 113c-1 64 92 31 124 65c33 35 -9 133 59 133h97c59 0 39 -74 55 -116l-29 -10c-1 20 -2 38 -24 38h-97c-20 0 -22 -16 -22 -33v-12c0 -11 -2 -22 -7 -29c-15 -18 -60 -5 -59 -36l2 -113c1 -31 46 -18 61 -36c17 -20 -7 -74 31 -74h98
c64 0 30 -93 64 -126s126 2 127 -62l2 -102c1 -64 -92 -29 -124 -62c-23 -23 -12 -76 -25 -105c9 -26 8 -63 28 -79c35 -29 126 12 127 -52l2 -113c1 -64 -92 -31 -124 -65c-33 -35 9 -133 -59 -133h-98c-59 0 -38 75 -54 117zM348 401h-97c-34 0 -12 -49 -28 -67
c-15 -17 -61 -2 -60 -33l2 -102c1 -31 45 -16 61 -33c17 -18 -3 -67 31 -67h98c34 0 12 49 28 67c15 17 61 2 60 33l-2 102c-1 31 -45 16 -61 33c-17 18 2 67 -32 67z" />
    <glyph glyph-name="guilsinglright" unicode="&#x203a;" horiz-adv-x="360" 
d="M294 382l-134 -382h-101l134 382l-149 383h101z" />
    <glyph glyph-name="Edieresis" unicode="&#xcb;" horiz-adv-x="609" 
d="M92 0l-18 900h471l2 -88h-375l5 -246h327l1 -88h-326l8 -390h375l1 -88h-471zM192 1102c22 0 11 -31 23 -43s44 1 44 -22c0 -22 -32 -11 -43 -22c-11 -12 1 -44 -21 -44s-10 32 -22 44s-45 -1 -45 22c0 22 33 11 44 22c11 12 -2 43 20 43zM428 1102c22 0 11 -31 23 -43
s44 1 44 -22c0 -22 -32 -11 -43 -22c-11 -12 1 -44 -21 -44s-11 32 -23 44s-44 -1 -44 22c0 22 33 11 44 22c11 12 -2 43 20 43z" />
    <glyph glyph-name="eng" unicode="&#x14b;" 
d="M79 0l-16 765h97l3 -168c24 6 50 11 63 28c8 11 10 27 10 45c0 16 -1 34 -1 50c0 31 6 55 43 55h97c40 0 45 -29 45 -62v-36c0 -20 2 -39 11 -52c26 -36 107 -19 108 -74c5 -256 16 -512 16 -768c0 -48 -72 -32 -95 -63c-7 -10 -9 -23 -9 -38c0 -14 2 -31 2 -45
c0 -26 -6 -47 -38 -47h-50c-36 0 -40 27 -40 58c0 8 1 15 1 23c0 13 -1 25 -4 36l24 8c-1 -6 -1 -13 -1 -18c0 -11 3 -19 18 -19h50c14 0 18 7 18 17c0 13 -6 29 -6 43c0 26 33 25 33 46c-5 256 -11 511 -16 767c0 23 -33 26 -42 45c-2 5 -4 11 -4 17c0 16 5 34 5 49
c0 14 -5 25 -24 25h-97c-47 0 -16 -66 -37 -91c-20 -23 -80 -5 -79 -45l11 -551h-96z" />
    <glyph glyph-name="r" unicode="r" horiz-adv-x="386" 
d="M164 561c25 14 46 27 46 65c0 32 -13 72 -13 102c0 27 10 47 47 47l2 -88c-24 0 -31 -12 -31 -30c0 -21 9 -49 9 -71c0 -7 -1 -14 -4 -20c-11 -25 -56 -28 -55 -59l10 -507h-96l-16 765h97zM380 750l42 -234c-8 23 -45 27 -56 50c-3 7 -4 14 -4 23c0 21 6 46 6 65
s-6 33 -32 33h-90l-2 88h90c26 0 39 -10 46 -25zM422 516c1 -3 2 -6 2 -9z" />
    <glyph glyph-name="u" unicode="u" 
d="M443 168c-30 -11 -51 -22 -51 -62c0 -23 6 -49 6 -71c0 -26 -8 -45 -41 -45h-98c-77 0 -29 109 -64 150c-32 38 -126 10 -127 74l-11 551h97l11 -551c1 -31 46 -24 61 -45c5 -7 6 -16 6 -27c0 -10 -1 -20 -1 -30c0 -19 4 -34 27 -34h97c21 0 25 12 25 29
c0 12 -2 26 -2 39c0 9 1 17 5 23c14 21 61 14 60 45l-11 551h96l16 -765h-97z" />
    <glyph glyph-name="Odieresis" unicode="&#xd6;" horiz-adv-x="917" 
d="M323 1102c22 0 11 -31 23 -43s44 1 44 -22c0 -22 -32 -11 -43 -22c-11 -12 1 -44 -21 -44s-10 32 -22 44s-45 -1 -45 22c0 22 33 11 44 22c11 12 -2 43 20 43zM559 1102c22 0 11 -31 23 -43s44 1 44 -22c0 -22 -32 -11 -43 -22c-11 -12 1 -44 -21 -44s-11 32 -23 44
s-44 -1 -44 22c0 22 33 11 44 22c11 12 -2 43 20 43zM548 822h-212c-44 0 -49 -32 -49 -69c0 -12 1 -25 1 -37c0 -23 -3 -44 -14 -58c-32 -41 -131 -15 -130 -82l5 -252c1 -67 101 -41 134 -82c38 -46 -16 -164 68 -164h212c44 0 49 32 49 69c0 12 -1 25 -1 37
c0 23 3 44 14 58c32 41 131 15 130 82l-5 252c-1 67 -101 41 -134 82c-38 46 16 164 -68 164zM546 910c114 0 47 -162 102 -223c51 -57 197 -11 199 -111l5 -252c2 -100 -146 -54 -195 -111c-52 -61 22 -223 -92 -223h-212c-114 0 -47 162 -102 223c-51 57 -197 11 -199 111
l-5 252c-2 100 146 54 195 111c52 61 -22 223 92 223h212z" />
    <glyph glyph-name="Zdotaccent" unicode="&#x17b;" horiz-adv-x="668" 
d="M17 812l-2 88h602l2 -100l-486 -712h501l1 -88h-602l-2 100l486 712h-500zM317 1102c22 0 10 -31 22 -43s45 1 45 -22c0 -22 -33 -11 -44 -22c-11 -12 2 -44 -20 -44s-11 32 -23 44s-44 -1 -44 22c0 22 32 11 43 22c11 12 -1 43 21 43z" />
    <glyph glyph-name="Igrave" unicode="&#xcc;" horiz-adv-x="306" 
d="M105 0l-18 900h97l18 -900h-97zM-33 1147h120l116 -180h-89z" />
    <glyph glyph-name="P" unicode="P" horiz-adv-x="668" 
d="M92 0l-18 900h305c68 0 39 -100 79 -134c43 -36 155 14 157 -65l2 -115c2 -79 -112 -30 -154 -66c-38 -34 -6 -133 -74 -133h-208l7 -387h-96zM172 812l7 -337h209c38 0 21 55 43 74c25 21 90 -9 89 37l-2 115c-1 46 -66 15 -91 36c-23 19 -8 75 -46 75h-209z" />
    <glyph glyph-name="tcaron" unicode="&#x165;" horiz-adv-x="354" 
d="M-3 677l-1 88h117l-4 225h96l5 -225h117l2 -88h-117l13 -677h-97l-13 677h-118zM432 990h100l-116 -292h-74z" />
    <glyph glyph-name="Scedilla" unicode="&#x15e;" horiz-adv-x="681" 
d="M56 168l89 27c1 -42 61 -18 83 -39c22 -20 2 -78 42 -78h132c39 0 18 58 39 78c21 21 82 -2 81 39l-3 107c-1 36 -35 59 -68 77l-287 63c-58 32 -92 94 -93 160l-2 112c-1 67 97 31 131 66c34 34 -2 130 64 130h110c67 0 32 -97 68 -131c27 -26 91 -11 120 -32l-89 -16
c-15 11 -48 4 -62 18c-19 19 2 73 -35 73h-110c-37 0 -15 -53 -33 -72c-17 -19 -68 -2 -67 -36l2 -112c1 -30 17 -57 43 -72l287 -63c64 -35 117 -94 118 -165l2 -107c1 -74 -106 -32 -144 -69c-37 -35 -2 -136 -71 -136h-45l-24 -75h33c47 0 21 -67 45 -91
c23 -24 87 0 88 -45l2 -69c1 -45 -65 -21 -87 -45c-23 -24 6 -91 -41 -91h-57c-52 0 -12 83 -57 99l9 26c9 -5 23 -3 29 -11c10 -12 -5 -44 18 -44h57c12 0 13 8 13 18v11c0 6 0 11 3 15c8 11 35 4 35 22l-1 69c0 18 -27 10 -36 21c-10 12 5 45 -18 45h-129l46 145h-14
c-70 0 -36 102 -75 137c-34 31 -116 4 -141 41z" />
    <glyph glyph-name="b" unicode="b" horiz-adv-x="675" 
d="M171 541c35 17 66 27 66 78c0 32 -10 71 -10 102s10 54 51 54h120c52 0 59 -38 59 -82c0 -14 -1 -29 -1 -43c0 -27 2 -52 15 -69c34 -46 141 -23 142 -95l4 -207c1 -72 -105 -49 -138 -95c-10 -14 -13 -35 -13 -56c0 -23 3 -47 3 -69c0 -38 -8 -69 -55 -69h-120
c-44 0 -54 26 -54 60c0 27 6 60 6 89c0 17 -2 33 -9 45c-12 20 -37 29 -60 40l5 -224h-97l-20 990h97zM400 687h-120c-29 0 -36 -16 -36 -38c0 -21 7 -48 7 -70c0 -10 -1 -20 -5 -27c-16 -30 -74 -26 -74 -65c0 -69 3 -139 4 -208c1 -40 59 -36 76 -66c5 -9 7 -20 7 -32
c0 -20 -4 -42 -4 -61c0 -24 6 -42 37 -42h120c29 0 36 16 36 38c0 21 -7 48 -7 70c0 10 1 20 5 27c16 30 75 26 74 66l-4 207c-1 40 -59 36 -76 66c-5 9 -7 20 -7 32c0 20 4 42 4 61c0 24 -6 42 -37 42z" />
    <glyph glyph-name="Yacute" unicode="&#xdd;" horiz-adv-x="681" 
d="M-11 900h112l233 -393l217 393h106l-276 -498l8 -402h-97l-8 402zM371 1147h120l-140 -180h-89z" />
    <glyph glyph-name="ecircumflex" unicode="&#xea;" horiz-adv-x="648" 
d="M563 153c-34 -8 -82 -1 -105 -24c-36 -36 3 -139 -68 -139h-125c-53 0 -59 39 -59 85c0 12 1 24 1 36c0 28 -2 55 -16 73c-35 47 -143 22 -144 95l-4 207c-1 73 107 48 140 95c10 15 13 36 13 58s-2 45 -2 66c0 39 9 70 56 70h124c53 0 59 -39 59 -85v-36
c0 -28 1 -55 15 -73c35 -47 144 -22 145 -95c1 -49 2 -99 3 -148h-454l2 -59c1 -41 61 -36 79 -66c5 -9 7 -21 7 -33c0 -19 -4 -41 -4 -59c0 -24 7 -43 38 -43h124c41 0 17 59 37 80s78 -1 77 39zM496 486c-1 41 -61 36 -79 66c-5 9 -7 21 -7 33c0 19 4 41 4 59
c0 24 -7 43 -38 43h-125c-29 0 -36 -17 -36 -39c0 -21 7 -46 7 -68c0 -10 -2 -20 -6 -28c-17 -30 -78 -25 -77 -66l2 -60h356zM311 1089l-76 -102h-88l103 180h118l111 -180h-88z" />
    <glyph glyph-name="ocircumflex" unicode="&#xf4;" horiz-adv-x="655" 
d="M376 687h-125c-29 0 -36 -17 -36 -39c0 -21 7 -46 7 -68c0 -10 -2 -20 -6 -28c-17 -30 -78 -25 -77 -66l5 -207c1 -41 61 -36 79 -66c5 -9 7 -21 7 -33c0 -19 -4 -41 -4 -59c0 -24 7 -43 38 -43h124c29 0 36 17 36 39c0 21 -6 46 -6 68c0 10 2 20 6 28c17 30 77 25 76 66
l-4 207c-1 41 -61 36 -79 66c-5 9 -7 21 -7 33c0 19 4 41 4 59c0 24 -7 43 -38 43zM374 775c53 0 59 -39 59 -85v-36c0 -28 1 -55 15 -73c35 -47 144 -22 145 -95l4 -207c1 -73 -108 -48 -141 -95c-10 -15 -13 -36 -13 -58s3 -45 3 -66c0 -39 -9 -70 -56 -70h-125
c-53 0 -59 39 -59 85c0 12 1 24 1 36c0 28 -2 55 -16 73c-35 47 -143 22 -144 95l-4 207c-1 73 107 48 140 95c10 15 13 36 13 58s-2 45 -2 66c0 39 9 70 56 70h124zM311 1089l-76 -102h-88l103 180h118l111 -180h-88z" />
    <glyph glyph-name="eogonek" unicode="&#x119;" horiz-adv-x="648" 
d="M563 153c-34 -8 -82 -1 -105 -24c-36 -36 3 -139 -68 -139h-42l-81 -128c-17 -28 -47 -49 -46 -83l1 -69c0 -18 27 -11 36 -22c10 -12 -5 -44 18 -44h57c12 0 13 8 13 18v11c0 6 0 11 3 15c7 9 28 6 34 15l-18 -71c-2 -27 1 -58 -31 -58h-56c-47 0 -21 67 -45 91
c-23 24 -87 0 -88 45l-2 69c-1 61 53 103 83 154l36 57c-51 2 -56 40 -56 85c0 12 1 24 1 36c0 28 -2 55 -16 73c-35 47 -143 22 -144 95l-4 207c-1 73 107 48 140 95c10 15 13 36 13 58s-2 45 -2 66c0 39 9 70 56 70h124c53 0 59 -39 59 -85v-36c0 -28 1 -55 15 -73
c35 -47 144 -22 145 -95c1 -49 2 -99 3 -148h-454l2 -59c1 -41 61 -36 79 -66c5 -9 7 -21 7 -33c0 -19 -4 -41 -4 -59c0 -24 7 -43 38 -43h124c41 0 17 59 37 80s78 -1 77 39zM496 486c-1 41 -61 36 -79 66c-5 9 -7 21 -7 33c0 19 4 41 4 59c0 24 -7 43 -38 43h-125
c-29 0 -36 -17 -36 -39c0 -21 7 -46 7 -68c0 -10 -2 -20 -6 -28c-17 -30 -78 -25 -77 -66l2 -60h356zM383 -297l1 7c0 -3 0 -5 -1 -7z" />
    <glyph glyph-name="ffi" unicode="&#xfb03;" horiz-adv-x="910" 
d="M305 887c-14 3 -4 25 -17 25h-38c-12 0 -5 -17 -11 -23s-23 1 -23 -11l2 -113h210l-2 98c-1 55 78 21 107 46c26 23 4 91 51 91h68c47 0 27 -68 54 -91c25 -21 85 1 103 -26l-91 -20c0 11 -9 13 -19 13h-9c-6 0 -11 1 -15 4c-10 8 -4 32 -21 32h-69
c-17 0 -10 -24 -20 -32c-4 -3 -9 -4 -15 -4h-9c-10 0 -18 -2 -18 -13l2 -98h292l15 -765h-97l-13 677h-195l13 -677h-96l-14 677h-210l14 -677h-97l-14 677h-99l-2 88h100l-3 113c-1 45 65 18 88 40c22 21 0 82 42 82h37c42 0 22 -61 46 -82z" />
    <glyph glyph-name="plus" unicode="+" horiz-adv-x="642" 
d="M257 765h97l7 -339h220l2 -88h-220l6 -338h-96l-7 338h-220l-2 88h220z" />
    <glyph glyph-name="Eogonek" unicode="&#x118;" horiz-adv-x="609" 
d="M92 0l-18 900h471l2 -88h-375l5 -246h327l1 -88h-326l8 -390h375l1 -88h-3l-87 -138c-17 -28 -48 -49 -47 -83l2 -69c0 -18 27 -11 36 -22c10 -12 -5 -44 18 -44h57c12 0 13 8 13 18v11c0 6 0 11 3 15c7 9 27 6 33 15l-17 -71c-2 -27 1 -58 -31 -58h-57
c-47 0 -21 67 -45 91c-23 24 -87 0 -88 45l-1 69c-1 61 53 103 83 154l42 67h-382zM588 -297l2 7c0 -3 -1 -5 -2 -7z" />
    <glyph glyph-name="R" unicode="R" horiz-adv-x="662" 
d="M92 0l-18 900h305c64 0 40 -94 79 -125c16 -13 42 -14 68 -14h10c40 0 78 -1 79 -47l2 -102c1 -46 -37 -48 -77 -48h-10c-26 0 -51 0 -67 -13c-29 -24 -20 -87 -44 -113l236 -438h-113l-221 426h-141l8 -426h-96zM172 812l6 -298h209c34 0 22 50 43 66c7 5 18 6 29 6h26
c19 0 35 3 35 26l-2 102c0 23 -17 26 -36 26h-26c-11 0 -22 1 -29 6c-22 16 -12 66 -46 66h-209z" />
    <glyph glyph-name="ecaron" unicode="&#x11b;" horiz-adv-x="648" 
d="M563 153c-34 -8 -82 -1 -105 -24c-36 -36 3 -139 -68 -139h-125c-53 0 -59 39 -59 85c0 12 1 24 1 36c0 28 -2 55 -16 73c-35 47 -143 22 -144 95l-4 207c-1 73 107 48 140 95c10 15 13 36 13 58s-2 45 -2 66c0 39 9 70 56 70h124c53 0 59 -39 59 -85v-36
c0 -28 1 -55 15 -73c35 -47 144 -22 145 -95c1 -49 2 -99 3 -148h-454l2 -59c1 -41 61 -36 79 -66c5 -9 7 -21 7 -33c0 -19 -4 -41 -4 -59c0 -24 7 -43 38 -43h124c41 0 17 59 37 80s78 -1 77 39zM388 1167h87l-103 -180h-118l-110 180h87l81 -103zM496 486
c-1 41 -61 36 -79 66c-5 9 -7 21 -7 33c0 19 4 41 4 59c0 24 -7 43 -38 43h-125c-29 0 -36 -17 -36 -39c0 -21 7 -46 7 -68c0 -10 -2 -20 -6 -28c-17 -30 -78 -25 -77 -66l2 -60h356z" />
    <glyph glyph-name="V" unicode="V" horiz-adv-x="689" 
d="M-8 900h103l250 -746l221 746h95l-266 -900h-100z" />
    <glyph glyph-name="AE" unicode="&#xc6;" horiz-adv-x="1055" 
d="M13 0l435 900h543l1 -88h-397l5 -246h348l2 -88h-348l8 -390h397l2 -88h-494l-7 348h-229l-168 -348h-98zM322 436h184l-7 366z" />
    <glyph glyph-name="bracketright" unicode="]" horiz-adv-x="367" 
d="M20 945h210l27 -1345h-210l-1 88h112l-23 1169h-113z" />
    <glyph glyph-name="H" unicode="H" horiz-adv-x="786" 
d="M92 0l-18 900h96l7 -334h409l-7 334h97l18 -900h-96l-10 478h-409l9 -478h-96z" />
    <glyph glyph-name="exclam" unicode="!" horiz-adv-x="385" 
d="M139 261l-13 639h97l13 -639h-97zM190 126c22 0 11 -31 22 -42s42 1 42 -21c0 -21 -31 -10 -42 -21s2 -42 -20 -42s-10 31 -21 42s-43 0 -43 22c0 21 31 9 42 20s-2 42 20 42z" />
    <glyph glyph-name="Aogonek" unicode="&#x104;" horiz-adv-x="727" 
d="M13 0l283 900h100l318 -900h-7l-87 -138c-17 -28 -48 -49 -47 -83l2 -69c0 -18 26 -11 35 -22c10 -12 -4 -44 19 -44h56c12 0 13 8 13 18v11c0 28 27 15 37 30l-17 -71c-2 -27 1 -58 -31 -58h-57c-47 0 -21 67 -45 91c-23 24 -87 0 -88 45l-1 69c-1 61 52 103 82 154
l43 67h-10l-101 285h-314l-90 -285h-93zM479 373l-135 383l-121 -383h256zM735 -297l2 7c0 -3 -1 -5 -2 -7z" />
    <glyph glyph-name="L" unicode="L" horiz-adv-x="603" 
d="M92 0l-18 900h96l17 -812h375l1 -88h-471z" />
    <glyph glyph-name="comma" unicode="," horiz-adv-x="308" 
d="M114 153h101l-118 -383h-75z" />
    <glyph glyph-name="ydieresis" unicode="&#xff;" horiz-adv-x="550" 
d="M-9 765h102l182 -582l159 582h94l-318 -1165h-94l112 410zM140 1122c22 0 11 -32 23 -44s44 1 44 -22c0 -22 -33 -11 -44 -22c-11 -12 2 -43 -20 -43s-11 31 -23 43s-44 0 -44 23c0 22 32 10 43 21c11 12 -1 44 21 44zM376 1122c22 0 10 -32 22 -44s45 1 45 -22
c0 -22 -33 -11 -44 -22c-11 -12 2 -43 -20 -43s-11 31 -23 43s-44 0 -44 23c0 22 32 10 43 21c11 12 -1 44 21 44z" />
    <glyph glyph-name="O" unicode="O" horiz-adv-x="917" 
d="M548 822h-212c-44 0 -49 -32 -49 -69c0 -12 1 -25 1 -37c0 -23 -3 -44 -14 -58c-32 -41 -131 -15 -130 -82l5 -252c1 -67 101 -41 134 -82c38 -46 -16 -164 68 -164h212c44 0 49 32 49 69c0 12 -1 25 -1 37c0 23 3 44 14 58c32 41 131 15 130 82l-5 252
c-1 67 -101 41 -134 82c-38 46 16 164 -68 164zM546 910c114 0 47 -162 102 -223c51 -57 197 -11 199 -111l5 -252c2 -100 -146 -54 -195 -111c-52 -61 22 -223 -92 -223h-212c-114 0 -47 162 -102 223c-51 57 -197 11 -199 111l-5 252c-2 100 146 54 195 111
c52 61 -22 223 92 223h212z" />
    <glyph glyph-name="bar" unicode="|" horiz-adv-x="262" 
d="M84 -45l-20 990h96l20 -990h-96z" />
    <glyph glyph-name="underscore" unicode="_" horiz-adv-x="616" 
d="M43 -188l-2 88h537l2 -88h-537z" />
    <glyph glyph-name="circumflex" unicode="&#x2c6;" horiz-adv-x="275" 
d="M121 823l-76 -103h-87l103 180h118l110 -180h-88z" />
    <glyph glyph-name="Ecircumflex" unicode="&#xca;" horiz-adv-x="609" 
d="M92 0l-18 900h471l2 -88h-375l5 -246h327l1 -88h-326l8 -390h375l1 -88h-471zM311 1070l-76 -103h-88l103 180h118l111 -180h-88z" />
    <glyph glyph-name="asterisk" unicode="*" horiz-adv-x="609" 
d="M238 900h97l3 -173l138 61l2 -107l-115 -51l119 -180h-113l-76 114l-71 -114h-113l112 180l-117 51l-2 107l140 -61z" />
    <glyph glyph-name="dcaron" unicode="&#x10f;" horiz-adv-x="675" 
d="M488 224c-35 -17 -65 -27 -65 -78c0 -32 10 -71 10 -102s-11 -54 -52 -54h-120c-52 0 -58 38 -58 82v43c0 27 -2 52 -15 69c-34 46 -140 23 -141 95l-4 207c-1 72 104 49 137 95c10 14 13 35 13 56c0 23 -3 47 -3 69c0 38 8 69 55 69h121c44 0 53 -26 53 -60
c0 -27 -6 -60 -6 -89c0 -17 2 -33 9 -45c12 -20 37 -29 60 -40l-9 449h97l20 -990h-97zM714 990h100l-116 -292h-74zM367 687h-120c-29 0 -36 -16 -36 -38c0 -21 7 -48 7 -70c0 -10 -1 -20 -5 -27c-16 -30 -75 -26 -74 -66l5 -207c1 -40 59 -36 76 -66c5 -9 6 -20 6 -32
c0 -20 -4 -42 -4 -61c0 -24 6 -42 37 -42h121c29 0 35 16 35 38c0 21 -7 48 -7 70c0 10 2 20 6 27c16 30 73 26 73 65c0 69 -3 139 -4 208c-1 40 -59 36 -76 66c-5 9 -7 20 -7 32c0 20 5 42 5 61c0 24 -7 42 -38 42z" />
    <glyph glyph-name="Ecaron" unicode="&#x11a;" horiz-adv-x="609" 
d="M92 0l-18 900h471l2 -88h-375l5 -246h327l1 -88h-326l8 -390h375l1 -88h-471zM388 1147h87l-103 -180h-118l-110 180h87l81 -102z" />
    <glyph glyph-name="Udieresis" unicode="&#xdc;" horiz-adv-x="778" 
d="M672 900l14 -676c2 -79 -113 -36 -152 -77c-40 -41 7 -157 -73 -157h-143c-80 0 -38 116 -79 157s-154 -2 -156 77l-13 676h97l13 -676c1 -45 67 -23 90 -48c25 -26 -4 -98 46 -98h143c50 0 19 72 42 98c22 25 89 3 88 48l-13 676h96zM254 1102c22 0 11 -31 23 -43
s44 1 44 -22c0 -22 -33 -11 -44 -22c-11 -12 2 -44 -20 -44s-11 32 -23 44s-44 -1 -44 22c0 22 32 11 43 22c11 12 -1 43 21 43zM490 1102c22 0 10 -31 22 -43s45 1 45 -22c0 -22 -33 -11 -44 -22c-11 -12 1 -44 -21 -44s-10 32 -22 44s-44 -1 -44 22c0 22 32 11 43 22
c11 12 -1 43 21 43z" />
    <glyph glyph-name="Zcaron" unicode="&#x17d;" horiz-adv-x="668" 
d="M17 812l-2 88h602l2 -100l-486 -712h501l1 -88h-602l-2 100l486 712h-500zM394 1147h88l-103 -180h-118l-111 180h88l80 -102z" />
    <glyph glyph-name="acute" unicode="&#xb4;" horiz-adv-x="262" 
d="M115 900h120l-140 -180h-88z" />
    <glyph glyph-name="uni1E9E" unicode="&#x1e9e;" horiz-adv-x="1271" 
d="M56 168l89 27c1 -42 60 -18 82 -39c22 -20 2 -78 42 -78h131c39 0 18 58 39 78c21 21 81 -2 80 39l-2 107c-1 36 -36 58 -69 77l-285 63c-57 32 -91 95 -92 160l-2 112c-1 67 96 31 130 66c34 34 -2 130 64 130h110c67 0 33 -97 68 -131c27 -26 90 -11 119 -32l-82 -33
c-1 35 -51 16 -69 35c-19 19 2 73 -35 73h-109c-37 0 -15 -53 -33 -72c-17 -19 -67 -2 -66 -36l2 -112c1 -30 18 -57 44 -72l285 -63c63 -36 116 -94 117 -165l2 -107c1 -74 -105 -32 -143 -69c-37 -35 -2 -136 -71 -136h-131c-70 0 -37 102 -75 137c-34 31 -115 5 -140 41z
M648 168l89 27c1 -42 60 -18 82 -39c22 -20 2 -78 42 -78h131c39 0 18 58 39 78c21 21 81 -2 80 39l-2 107c-1 35 -38 53 -69 71l-285 69c-57 32 -91 95 -92 160l-2 112c-1 67 96 31 130 66c34 34 -2 130 64 130h109c67 0 34 -97 69 -131c27 -26 90 -11 119 -32l-82 -33
c-1 35 -51 16 -69 35c-19 19 2 73 -35 73h-109c-37 0 -15 -53 -33 -72c-17 -19 -67 -2 -66 -36l2 -112c1 -30 18 -57 44 -72l285 -69c62 -35 116 -90 117 -159l2 -107c1 -74 -106 -32 -144 -69c-37 -35 -1 -136 -70 -136h-131c-70 0 -37 102 -75 137c-34 31 -115 5 -140 41z
" />
    <glyph glyph-name="Uhungarumlaut" unicode="&#x170;" horiz-adv-x="778" 
d="M672 900l14 -676c2 -79 -113 -36 -152 -77c-40 -41 7 -157 -73 -157h-143c-80 0 -38 116 -79 157s-154 -2 -156 77l-13 676h97l13 -676c1 -45 67 -23 90 -48c25 -26 -4 -98 46 -98h143c50 0 19 72 42 98c22 25 89 3 88 48l-13 676h96zM214 967l99 180h116l-129 -180h-86z
M509 1147h117l-129 -180h-87z" />
    <glyph glyph-name="Atilde" unicode="&#xc3;" horiz-adv-x="727" 
d="M13 0l283 900h100l318 -900h-103l-101 285h-314l-90 -285h-93zM241 972h-77c-1 43 61 20 83 42s-2 84 41 84c42 0 76 -34 118 -34c16 0 8 24 16 32c9 8 32 -2 32 15h78c1 -43 -62 -19 -84 -41s3 -85 -40 -85c-42 0 -77 35 -119 35c-16 0 -7 -24 -15 -32
c-9 -8 -33 1 -33 -16zM479 373l-135 383l-121 -383h256z" />
    <glyph glyph-name="Dcaron" unicode="&#x10e;" horiz-adv-x="825" 
d="M92 0l-18 900h371c112 0 47 -160 102 -219c52 -56 199 -6 201 -108l5 -246c2 -102 -147 -52 -197 -108c-52 -59 19 -219 -93 -219h-371zM414 1147h87l-103 -180h-118l-110 180h88l80 -102zM187 88h274c46 0 49 36 49 76v17c0 26 1 51 14 67c33 40 133 10 132 79l-4 246
c-1 69 -102 39 -136 79c-38 44 12 160 -70 160h-274z" />
    <glyph glyph-name="equal" unicode="=" horiz-adv-x="642" 
d="M43 492l-2 88h537l2 -88h-537zM49 186l-2 88h537l2 -88h-537z" />
    <glyph glyph-name="C" unicode="C" horiz-adv-x="884" 
d="M756 249c-38 -6 -78 -11 -99 -36c-52 -61 22 -223 -92 -223h-212c-114 0 -47 162 -102 223c-51 57 -197 11 -199 111l-5 252c-2 100 146 54 195 111c52 61 -22 223 92 223h212c114 0 47 -162 102 -223c22 -25 62 -30 100 -36l-7 -47c-25 33 -97 20 -125 54
c-38 46 16 164 -68 164h-212c-44 0 -49 -32 -49 -69c0 -12 1 -25 1 -37c0 -23 -3 -44 -14 -58c-32 -41 -131 -15 -130 -82l5 -252c1 -67 101 -41 134 -82c38 -46 -16 -164 68 -164h212c44 0 49 32 49 69c0 12 -1 25 -1 37c0 23 3 44 14 58c26 34 99 21 122 54z" />
    <glyph glyph-name="Eth" unicode="&#xd0;" horiz-adv-x="878" 
d="M497 900c112 0 47 -160 102 -219c52 -56 200 -6 202 -108l5 -246c2 -102 -147 -52 -197 -108c-52 -59 18 -219 -94 -219h-371l-8 406h-98l-2 88h98l-8 406h371zM239 88h274c46 0 49 36 49 76v17c0 26 1 51 14 67c33 40 134 10 133 79l-5 246c-1 69 -102 39 -136 79
c-38 44 13 160 -69 160h-274l6 -318h237l2 -88h-237z" />
    <glyph glyph-name="edieresis" unicode="&#xeb;" horiz-adv-x="648" 
d="M563 153c-34 -8 -82 -1 -105 -24c-36 -36 3 -139 -68 -139h-125c-53 0 -59 39 -59 85c0 12 1 24 1 36c0 28 -2 55 -16 73c-35 47 -143 22 -144 95l-4 207c-1 73 107 48 140 95c10 15 13 36 13 58s-2 45 -2 66c0 39 9 70 56 70h124c53 0 59 -39 59 -85v-36
c0 -28 1 -55 15 -73c35 -47 144 -22 145 -95c1 -49 2 -99 3 -148h-454l2 -59c1 -41 61 -36 79 -66c5 -9 7 -21 7 -33c0 -19 -4 -41 -4 -59c0 -24 7 -43 38 -43h124c41 0 17 59 37 80s78 -1 77 39zM192 1122c22 0 11 -32 23 -44s44 1 44 -22c0 -22 -32 -11 -43 -22
c-11 -12 1 -43 -21 -43s-10 31 -22 43s-45 0 -45 23c0 22 33 10 44 21c11 12 -2 44 20 44zM428 1122c22 0 11 -32 23 -44s44 1 44 -22c0 -22 -32 -11 -43 -22c-11 -12 1 -43 -21 -43s-11 31 -23 43s-44 0 -44 23c0 22 33 10 44 21c11 12 -2 44 20 44zM496 486
c-1 41 -61 36 -79 66c-5 9 -7 21 -7 33c0 19 4 41 4 59c0 24 -7 43 -38 43h-125c-29 0 -36 -17 -36 -39c0 -21 7 -46 7 -68c0 -10 -2 -20 -6 -28c-17 -30 -78 -25 -77 -66l2 -60h356z" />
    <glyph glyph-name="ccaron" unicode="&#x10d;" horiz-adv-x="626" 
d="M528 218c-28 -7 -57 -14 -72 -34c-10 -15 -13 -36 -13 -58s3 -45 3 -66c0 -39 -9 -70 -56 -70h-125c-53 0 -59 39 -59 85c0 12 1 24 1 36c0 28 -2 55 -16 73c-35 47 -143 22 -144 95l-4 207c-1 73 107 48 140 95c10 15 13 36 13 58s-2 45 -2 66c0 39 9 70 56 70h124
c53 0 59 -39 59 -85v-36c0 -28 1 -55 15 -73c15 -20 45 -27 73 -34l-25 -61c-1 41 -61 36 -79 66c-5 9 -7 21 -7 33c0 19 4 41 4 59c0 24 -7 43 -38 43h-125c-29 0 -36 -17 -36 -39c0 -21 7 -46 7 -68c0 -10 -2 -20 -6 -28c-17 -30 -78 -25 -77 -66l5 -207
c1 -41 61 -36 79 -66c5 -9 7 -21 7 -33c0 -19 -4 -41 -4 -59c0 -24 7 -43 38 -43h124c29 0 36 17 36 39c0 21 -6 46 -6 68c0 10 2 20 6 28c17 30 77 25 76 66zM388 1167h87l-103 -180h-118l-110 180h87l81 -103z" />
    <glyph glyph-name="cacute" unicode="&#x107;" horiz-adv-x="626" 
d="M528 218c-28 -7 -57 -14 -72 -34c-10 -15 -13 -36 -13 -58s3 -45 3 -66c0 -39 -9 -70 -56 -70h-125c-53 0 -59 39 -59 85c0 12 1 24 1 36c0 28 -2 55 -16 73c-35 47 -143 22 -144 95l-4 207c-1 73 107 48 140 95c10 15 13 36 13 58s-2 45 -2 66c0 39 9 70 56 70h124
c53 0 59 -39 59 -85v-36c0 -28 1 -55 15 -73c15 -20 45 -27 73 -34l-25 -61c-1 41 -61 36 -79 66c-5 9 -7 21 -7 33c0 19 4 41 4 59c0 24 -7 43 -38 43h-125c-29 0 -36 -17 -36 -39c0 -21 7 -46 7 -68c0 -10 -2 -20 -6 -28c-17 -30 -78 -25 -77 -66l5 -207
c1 -41 61 -36 79 -66c5 -9 7 -21 7 -33c0 -19 -4 -41 -4 -59c0 -24 7 -43 38 -43h124c29 0 36 17 36 39c0 21 -6 46 -6 68c0 10 2 20 6 28c17 30 77 25 76 66zM358 1167h119l-139 -180h-89z" />
    <glyph glyph-name="odieresis" unicode="&#xf6;" horiz-adv-x="655" 
d="M192 1122c22 0 11 -32 23 -44s44 1 44 -22c0 -22 -32 -11 -43 -22c-11 -12 1 -43 -21 -43s-10 31 -22 43s-45 0 -45 23c0 22 33 10 44 21c11 12 -2 44 20 44zM428 1122c22 0 11 -32 23 -44s44 1 44 -22c0 -22 -32 -11 -43 -22c-11 -12 1 -43 -21 -43s-11 31 -23 43
s-44 0 -44 23c0 22 33 10 44 21c11 12 -2 44 20 44zM376 687h-125c-29 0 -36 -17 -36 -39c0 -21 7 -46 7 -68c0 -10 -2 -20 -6 -28c-17 -30 -78 -25 -77 -66l5 -207c1 -41 61 -36 79 -66c5 -9 7 -21 7 -33c0 -19 -4 -41 -4 -59c0 -24 7 -43 38 -43h124c29 0 36 17 36 39
c0 21 -6 46 -6 68c0 10 2 20 6 28c17 30 77 25 76 66l-4 207c-1 41 -61 36 -79 66c-5 9 -7 21 -7 33c0 19 4 41 4 59c0 24 -7 43 -38 43zM374 775c53 0 59 -39 59 -85v-36c0 -28 1 -55 15 -73c35 -47 144 -22 145 -95l4 -207c1 -73 -108 -48 -141 -95
c-10 -15 -13 -36 -13 -58s3 -45 3 -66c0 -39 -9 -70 -56 -70h-125c-53 0 -59 39 -59 85c0 12 1 24 1 36c0 28 -2 55 -16 73c-35 47 -143 22 -144 95l-4 207c-1 73 107 48 140 95c10 15 13 36 13 58s-2 45 -2 66c0 39 9 70 56 70h124z" />
    <glyph glyph-name="four" unicode="4" horiz-adv-x="648" 
d="M493 226l4 -226h-97l-4 226h-357l-2 100l342 574h100l12 -586h107l2 -88h-107zM394 314l-8 422l-252 -422h260z" />
    <glyph glyph-name="adieresis" unicode="&#xe4;" horiz-adv-x="616" 
d="M537 0h-97l-2 139c-18 -4 -37 -9 -47 -22c-7 -10 -9 -25 -9 -40c0 -13 1 -26 1 -39c0 -26 -5 -48 -37 -48h-102c-65 0 -32 94 -66 127s-128 -4 -129 62l-2 104c-1 66 94 30 127 63s-5 126 60 126h102c37 0 39 -28 39 -60v-14c0 -20 1 -39 11 -52s29 -18 48 -22l-4 200
c-1 33 -50 29 -65 54c-4 7 -5 16 -5 26c0 15 3 33 3 48c0 20 -6 35 -31 35h-102c-24 0 -29 -13 -29 -31c0 -11 2 -24 3 -36l-27 7c2 10 4 21 4 33c0 17 -2 35 -2 51c0 35 7 64 49 64h102c50 0 52 -40 52 -83v-13c0 -28 1 -55 15 -72c32 -41 129 -17 130 -83zM160 1122
c22 0 10 -32 22 -44s45 1 45 -22c0 -22 -33 -11 -44 -22c-11 -12 1 -43 -21 -43s-10 31 -22 43s-44 0 -44 23c0 22 32 10 43 21c11 12 -1 44 21 44zM396 1122c22 0 10 -32 22 -44s44 1 44 -22c0 -22 -32 -11 -43 -22c-11 -12 1 -43 -21 -43s-10 31 -22 43s-45 0 -45 23
c0 22 33 10 44 21c11 12 -1 44 21 44zM338 384h-102c-35 0 -13 -50 -30 -68c-16 -17 -63 -1 -62 -33l2 -104c1 -32 47 -16 64 -33c17 -18 -3 -68 32 -68h102c35 0 13 50 30 68c16 17 64 1 63 33l-2 104c-1 32 -47 16 -64 33c-17 18 2 68 -33 68z" />
    <glyph glyph-name="Ydieresis" unicode="&#x178;" horiz-adv-x="681" 
d="M-11 900h112l233 -393l217 393h106l-276 -498l8 -402h-97l-8 402zM206 1102c22 0 10 -31 22 -43s44 1 44 -22c0 -22 -32 -11 -43 -22c-11 -12 1 -44 -21 -44s-10 32 -22 44s-45 -1 -45 22c0 22 33 11 44 22c11 12 -1 43 21 43zM441 1102c22 0 11 -31 23 -43s44 1 44 -22
c0 -22 -32 -11 -43 -22c-11 -12 1 -44 -21 -44s-10 32 -22 44s-45 -1 -45 22c0 22 33 11 44 22c11 12 -2 43 20 43z" />
    <glyph glyph-name="Thorn" unicode="&#xde;" horiz-adv-x="681" 
d="M92 0l-18 900h96l3 -136h209c66 0 40 -97 79 -129c43 -36 154 16 156 -64l3 -109c2 -80 -112 -27 -154 -63c-38 -32 -8 -130 -74 -130h-209l5 -269h-96zM175 676l6 -319h209c36 0 21 54 43 71c8 7 21 7 34 7h16c21 0 40 2 40 27l-2 109c0 25 -20 27 -41 27h-16
c-13 0 -25 1 -34 8c-22 17 -10 70 -46 70h-209z" />
    <glyph glyph-name="cedilla" unicode="&#xb8;" horiz-adv-x="262" 
d="M94 35h72l-38 -120h33c47 0 21 -67 45 -91c23 -24 87 0 88 -45l1 -69c1 -45 -64 -21 -86 -45c-23 -24 6 -91 -41 -91h-57c-52 0 -13 83 -58 99l9 26c9 -5 23 -3 29 -11c10 -12 -4 -44 19 -44h56c12 0 14 8 14 18c0 3 -1 7 -1 11c0 6 1 11 4 15c8 11 35 4 35 22l-2 69
c0 18 -26 10 -35 21c-10 12 4 45 -19 45h-128z" />
    <glyph glyph-name="p" unicode="p" horiz-adv-x="668" 
d="M165 541c35 17 65 27 65 78c0 32 -10 71 -10 102s11 54 52 54h120c52 0 58 -38 58 -82c0 -14 -1 -29 -1 -43c0 -27 2 -52 15 -69c34 -46 141 -23 142 -95l4 -207c1 -72 -105 -49 -138 -95c-10 -14 -12 -35 -12 -56c0 -23 3 -47 3 -69c0 -38 -9 -69 -56 -69h-120
c-44 0 -53 26 -53 60c0 27 6 60 6 89c0 17 -2 33 -9 45c-12 20 -37 29 -60 40l12 -624h-96l-24 1165h97zM394 687h-121c-29 0 -35 -16 -35 -38c0 -21 6 -48 6 -70c0 -10 -1 -20 -5 -27c-16 -30 -73 -26 -73 -65c0 -69 3 -139 4 -208c1 -40 59 -36 76 -66c5 -9 6 -20 6 -32
c0 -20 -4 -42 -4 -61c0 -24 6 -42 37 -42h121c29 0 35 16 35 38c0 21 -6 48 -6 70c0 10 1 20 5 27c16 30 74 26 73 66l-4 207c-1 40 -59 36 -76 66c-5 9 -6 20 -6 32c0 20 4 42 4 61c0 24 -6 42 -37 42z" />
    <glyph glyph-name="semicolon" unicode=";" horiz-adv-x="314" 
d="M108 153h101l-119 -383h-75zM146 765c22 0 11 -31 22 -42s42 0 42 -22c0 -21 -31 -9 -42 -20s2 -42 -20 -42s-10 31 -21 42s-43 -1 -43 21c0 21 31 10 42 21s-2 42 20 42z" />
    <glyph glyph-name="Idieresis" unicode="&#xcf;" horiz-adv-x="306" 
d="M105 0l-18 900h97l18 -900h-97zM18 1102c22 0 11 -31 23 -43s44 1 44 -22c0 -22 -32 -11 -43 -22c-11 -12 1 -44 -21 -44s-11 32 -23 44s-44 -1 -44 22c0 22 32 11 43 22c11 12 -1 43 21 43zM254 1102c22 0 10 -31 22 -43s45 1 45 -22c0 -22 -33 -11 -44 -22
c-11 -12 2 -44 -20 -44s-11 32 -23 44s-44 -1 -44 22c0 22 32 11 43 22c11 12 -1 43 21 43z" />
    <glyph glyph-name="U" unicode="U" horiz-adv-x="778" 
d="M672 900l14 -676c2 -79 -113 -36 -152 -77c-40 -41 7 -157 -73 -157h-143c-80 0 -38 116 -79 157s-154 -2 -156 77l-13 676h97l13 -676c1 -45 67 -23 90 -48c25 -26 -4 -98 46 -98h143c50 0 19 72 42 98c22 25 89 3 88 48l-13 676h96z" />
    <glyph glyph-name="Agrave" unicode="&#xc0;" horiz-adv-x="727" 
d="M13 0l283 900h100l318 -900h-103l-101 285h-314l-90 -285h-93zM178 1147h119l116 -180h-89zM479 373l-135 383l-121 -383h256z" />
    <glyph glyph-name="dollar" unicode="$" horiz-adv-x="681" 
d="M56 168l89 27c1 -42 61 -18 83 -39c22 -20 2 -78 42 -78h132c39 0 18 58 39 78c21 21 82 -2 81 39l-3 107c-1 36 -35 59 -68 77l-287 63c-58 32 -92 94 -93 160l-2 112c-1 67 97 31 131 66c34 34 -2 130 64 130h7l-4 170h97l4 -170h6c67 0 32 -97 68 -131
c27 -26 91 -11 120 -32l-82 -33c-1 35 -51 16 -69 35c-19 19 2 73 -35 73h-110c-37 0 -15 -53 -33 -72c-17 -19 -68 -2 -67 -36l2 -112c1 -30 17 -57 43 -72l287 -63c64 -35 117 -94 118 -165l2 -107c1 -74 -106 -32 -144 -69c-37 -35 -2 -136 -71 -136h-17l3 -170h-96
l-4 170h-17c-70 0 -36 102 -75 137c-34 31 -116 4 -141 41z" />
    <glyph glyph-name="ncaron" unicode="&#x148;" 
d="M79 0l-16 765h97l3 -168c24 6 50 11 63 28c8 11 10 27 10 45c0 16 -1 34 -1 50c0 31 6 55 43 55h97c40 0 45 -29 45 -62v-36c0 -20 2 -39 11 -52c26 -36 107 -19 108 -74l11 -551h-97l-11 551c0 23 -33 26 -42 45c-2 5 -4 11 -4 17c0 16 5 34 5 49c0 14 -5 25 -24 25h-97
c-47 0 -16 -66 -37 -91c-20 -23 -80 -5 -79 -45l11 -551h-96zM375 1167h87l-103 -180h-118l-110 180h87l80 -103z" />
    <glyph glyph-name="Ograve" unicode="&#xd2;" horiz-adv-x="917" 
d="M273 1147h119l116 -180h-89zM548 822h-212c-44 0 -49 -32 -49 -69c0 -12 1 -25 1 -37c0 -23 -3 -44 -14 -58c-32 -41 -131 -15 -130 -82l5 -252c1 -67 101 -41 134 -82c38 -46 -16 -164 68 -164h212c44 0 49 32 49 69c0 12 -1 25 -1 37c0 23 3 44 14 58
c32 41 131 15 130 82l-5 252c-1 67 -101 41 -134 82c-38 46 16 164 -68 164zM546 910c114 0 47 -162 102 -223c51 -57 197 -11 199 -111l5 -252c2 -100 -146 -54 -195 -111c-52 -61 22 -223 -92 -223h-212c-114 0 -47 162 -102 223c-51 57 -197 11 -199 111l-5 252
c-2 100 146 54 195 111c52 61 -22 223 92 223h212z" />
    <glyph glyph-name="Icircumflex" unicode="&#xce;" horiz-adv-x="306" 
d="M105 0l-18 900h97l18 -900h-97zM137 1070l-76 -103h-88l103 180h118l110 -180h-87z" />
    <glyph glyph-name="e" unicode="e" horiz-adv-x="648" 
d="M563 153c-34 -8 -82 -1 -105 -24c-36 -36 3 -139 -68 -139h-125c-53 0 -59 39 -59 85c0 12 1 24 1 36c0 28 -2 55 -16 73c-35 47 -143 22 -144 95l-4 207c-1 73 107 48 140 95c10 15 13 36 13 58s-2 45 -2 66c0 39 9 70 56 70h124c53 0 59 -39 59 -85v-36
c0 -28 1 -55 15 -73c35 -47 144 -22 145 -95c1 -49 2 -99 3 -148h-454l2 -59c1 -41 61 -36 79 -66c5 -9 7 -21 7 -33c0 -19 -4 -41 -4 -59c0 -24 7 -43 38 -43h124c41 0 17 59 37 80s78 -1 77 39zM496 486c-1 41 -61 36 -79 66c-5 9 -7 21 -7 33c0 19 4 41 4 59
c0 24 -7 43 -38 43h-125c-29 0 -36 -17 -36 -39c0 -21 7 -46 7 -68c0 -10 -2 -20 -6 -28c-17 -30 -78 -25 -77 -66l2 -60h356z" />
    <glyph glyph-name="breve" unicode="&#x2d8;" horiz-adv-x="275" 
d="M305 908l1 -53c1 -51 -72 -19 -98 -43c-25 -22 -3 -86 -47 -86h-76c-44 0 -25 64 -50 86c-27 24 -99 -8 -100 43l-1 53h77l1 -53c0 -12 9 -14 19 -14c4 0 9 1 14 1c6 0 11 -1 15 -4c11 -8 6 -34 24 -34h75c18 0 12 26 23 34c4 3 9 4 15 4c5 0 10 -1 14 -1
c10 0 17 2 17 14l-1 53h78z" />
    <glyph glyph-name="ampersand" unicode="&#x26;" horiz-adv-x="812" 
d="M352 494c-20 34 -34 64 -86 64c-36 0 -80 -12 -114 -12c-33 0 -58 11 -59 56l-2 112c-1 69 99 30 134 65c35 34 -3 131 64 131h114c67 0 33 -97 69 -131c22 -21 68 -16 100 -23l-59 -42c-1 36 -53 16 -72 35s1 73 -36 73h-114c-37 0 -16 -54 -34 -73s-71 1 -70 -35
l3 -112c1 -31 17 -39 40 -39c24 0 55 9 80 9c10 0 19 -1 27 -5c32 -16 34 -73 74 -73h341l2 -88h-138l8 -406h-317c-66 0 -33 95 -69 129c-37 34 -136 -5 -137 64l-2 108c-1 69 99 30 134 64c34 34 -2 129 64 129h55zM519 406h-220c-36 0 -15 -52 -33 -70s-71 1 -70 -35
l2 -108c1 -36 52 -17 71 -35s1 -70 37 -70h219z" />
    <glyph glyph-name="d" unicode="d" horiz-adv-x="675" 
d="M488 224c-35 -17 -65 -27 -65 -78c0 -32 10 -71 10 -102s-11 -54 -52 -54h-120c-52 0 -58 38 -58 82v43c0 27 -2 52 -15 69c-34 46 -140 23 -141 95l-4 207c-1 72 104 49 137 95c10 14 13 35 13 56c0 23 -3 47 -3 69c0 38 8 69 55 69h121c44 0 53 -26 53 -60
c0 -27 -6 -60 -6 -89c0 -17 2 -33 9 -45c12 -20 37 -29 60 -40l-9 449h97l20 -990h-97zM367 687h-120c-29 0 -36 -16 -36 -38c0 -21 7 -48 7 -70c0 -10 -1 -20 -5 -27c-16 -30 -75 -26 -74 -66l5 -207c1 -40 59 -36 76 -66c5 -9 6 -20 6 -32c0 -20 -4 -42 -4 -61
c0 -24 6 -42 37 -42h121c29 0 35 16 35 38c0 21 -7 48 -7 70c0 10 2 20 6 27c16 30 73 26 73 65c0 69 -3 139 -4 208c-1 40 -59 36 -76 66c-5 9 -7 20 -7 32c0 20 5 42 5 61c0 24 -7 42 -38 42z" />
    <glyph glyph-name="dotlessi" unicode="&#x131;" horiz-adv-x="249" 
d="M76 0l-15 765h97l15 -765h-97z" />
    <glyph glyph-name="Oslash" unicode="&#xd8;" horiz-adv-x="917" 
d="M548 822h-212c-44 0 -49 -32 -49 -69c0 -12 1 -25 1 -37c0 -23 -3 -44 -14 -58c-32 -41 -131 -15 -130 -82l5 -252c1 -49 55 -48 96 -60l356 443c-4 52 8 115 -53 115zM546 910c89 0 68 -100 80 -172l130 162h110l-188 -234c63 -25 167 -6 169 -90l5 -252
c2 -100 -146 -54 -195 -111c-52 -61 22 -223 -92 -223h-212c-89 0 -68 100 -80 172l-130 -162h-110l188 234c-63 25 -167 6 -169 90l-5 252c-2 100 146 54 195 111c52 61 -22 223 92 223h212zM298 193c4 -52 -8 -115 53 -115h212c44 0 49 32 49 69c0 12 -1 25 -1 37
c0 23 3 44 14 58c32 41 131 15 130 82l-5 252c-1 49 -55 48 -96 60z" />
    <glyph glyph-name="Acircumflex" unicode="&#xc2;" horiz-adv-x="727" 
d="M13 0l283 900h100l318 -900h-103l-101 285h-314l-90 -285h-93zM479 373l-135 383l-121 -383h256zM347 1070l-76 -103h-87l103 180h118l110 -180h-88z" />
    <glyph glyph-name="w" unicode="w" horiz-adv-x="845" 
d="M-9 765h102l202 -612l73 253l-118 359h102l64 -194l56 194h92l-99 -344l88 -268l178 612h92l-221 -765h-100l-85 256l-74 -256h-100z" />
    <glyph glyph-name="braceright" unicode="}" horiz-adv-x="400" 
d="M57 -402c8 42 -4 101 23 128c11 12 30 17 49 19zM30 952l77 -147c-19 2 -36 7 -48 19c-28 27 -20 86 -29 128zM294 275c-4 25 -6 54 -22 69c-34 31 -124 -7 -125 57l-7 343l-33 61c56 -7 129 7 130 -61l6 -343c1 -31 44 -12 61 -26c15 -13 3 -52 30 -52l2 -96
c-27 0 -13 -39 -28 -52c-16 -14 -61 5 -60 -26l7 -343l-103 343c-1 64 90 26 123 57c16 15 16 44 19 69zM159 -194h96c1 -68 -70 -54 -126 -61z" />
    <glyph glyph-name="nacute" unicode="&#x144;" 
d="M79 0l-16 765h97l3 -168c24 6 50 11 63 28c8 11 10 27 10 45c0 16 -1 34 -1 50c0 31 6 55 43 55h97c40 0 45 -29 45 -62v-36c0 -20 2 -39 11 -52c26 -36 107 -19 108 -74l11 -551h-97l-11 551c0 23 -33 26 -42 45c-2 5 -4 11 -4 17c0 16 5 34 5 49c0 14 -5 25 -24 25h-97
c-47 0 -16 -66 -37 -91c-20 -23 -80 -5 -79 -45l11 -551h-96zM345 1167h119l-139 -180h-89z" />
    <glyph glyph-name="lslash" unicode="&#x142;" horiz-adv-x="301" 
d="M91 559l-9 431h97l7 -352l73 59l2 -107l-73 -60l11 -530h-97l-9 451l-72 -59l-2 107z" />
    <glyph glyph-name="Ccaron" unicode="&#x10c;" horiz-adv-x="884" 
d="M756 249c-38 -6 -78 -11 -99 -36c-52 -61 22 -223 -92 -223h-212c-114 0 -47 162 -102 223c-51 57 -197 11 -199 111l-5 252c-2 100 146 54 195 111c52 61 -22 223 92 223h212c114 0 47 -162 102 -223c22 -25 62 -30 100 -36l-7 -47c-25 33 -97 20 -125 54
c-38 46 16 164 -68 164h-212c-44 0 -49 -32 -49 -69c0 -12 1 -25 1 -37c0 -23 -3 -44 -14 -58c-32 -41 -131 -15 -130 -82l5 -252c1 -67 101 -41 134 -82c38 -46 -16 -164 68 -164h212c44 0 49 32 49 69c0 12 -1 25 -1 37c0 23 3 44 14 58c26 34 99 21 122 54zM519 1147h87
l-103 -180h-118l-110 180h87l81 -102z" />
    <glyph glyph-name="Uacute" unicode="&#xda;" horiz-adv-x="778" 
d="M672 900l14 -676c2 -79 -113 -36 -152 -77c-40 -41 7 -157 -73 -157h-143c-80 0 -38 116 -79 157s-154 -2 -156 77l-13 676h97l13 -676c1 -45 67 -23 90 -48c25 -26 -4 -98 46 -98h143c50 0 19 72 42 98c22 25 89 3 88 48l-13 676h96zM419 1147h120l-140 -180h-88z" />
    <glyph glyph-name="v" unicode="v" horiz-adv-x="550" 
d="M-9 765h101l184 -599l159 599h93l-203 -765h-100z" />
    <glyph glyph-name="E" unicode="E" horiz-adv-x="609" 
d="M92 0l-18 900h471l2 -88h-375l5 -246h327l1 -88h-326l8 -390h375l1 -88h-471z" />
    <glyph glyph-name="B" unicode="B" horiz-adv-x="688" 
d="M92 0l-18 900h328c55 0 28 -80 57 -108c30 -28 110 3 111 -53l2 -74c1 -28 -19 -33 -43 -33c-10 0 -21 1 -31 1c-14 0 -27 -1 -36 -8c-12 -9 -16 -28 -20 -45c29 -30 8 -107 38 -139c37 -39 140 -3 141 -74l3 -142c1 -71 -103 -35 -138 -74c-37 -40 11 -151 -66 -151
h-328zM172 812l5 -220h232c25 0 9 36 21 49c11 13 45 1 45 24l-2 74c0 23 -34 11 -46 24s2 49 -23 49h-232zM178 504l9 -416h232c25 0 27 19 27 40v18c0 13 1 26 8 34c18 23 74 7 73 45l-2 142c-1 38 -57 22 -76 45c-21 25 8 92 -39 92h-232z" />
    <glyph glyph-name="s" unicode="s" horiz-adv-x="524" 
d="M42 150l91 21c1 -28 41 -15 55 -31c15 -17 -4 -62 28 -62h89c31 0 11 45 26 62c14 16 54 3 53 31l-1 85c-1 29 -27 48 -51 65l-193 40c-50 35 -78 91 -79 151l-2 89c-1 54 77 29 104 59c28 31 -8 115 51 115h67c60 0 25 -86 54 -117c21 -23 74 -12 97 -31l-86 -26
c0 21 -32 14 -42 28c-4 5 -4 13 -4 21v13c0 13 -2 24 -17 24h-67c-14 0 -17 -9 -17 -21c0 -6 1 -13 1 -19c0 -7 -1 -13 -4 -17c-10 -14 -40 -8 -40 -29l2 -89c1 -27 21 -47 43 -63l193 -40c51 -36 86 -91 87 -153l1 -85c1 -60 -86 -29 -117 -61s3 -120 -58 -120h-88
c-62 0 -29 89 -61 121c-27 27 -95 7 -115 39z" />
    <glyph glyph-name="OE" unicode="&#x152;" horiz-adv-x="1100" 
d="M483 822h-178c-38 0 -46 -24 -46 -54c0 -21 4 -46 4 -68c0 -16 -2 -31 -9 -42c-25 -39 -111 -25 -110 -82l5 -252c1 -57 86 -43 113 -82c9 -13 11 -30 11 -50c0 -17 -1 -36 -1 -52c0 -34 6 -62 48 -62h178c38 0 46 24 46 54c0 21 -4 46 -4 68c0 16 3 31 10 42
c25 39 109 25 109 81c0 84 -3 169 -5 253c-1 57 -86 43 -113 82c-9 13 -11 30 -11 50c0 17 2 36 2 52c0 34 -7 62 -49 62zM482 910c115 0 41 -161 91 -223c17 -22 49 -30 80 -37l-5 250h389l1 -88h-292l5 -246h244l2 -88h-244c1 -52 2 -102 3 -154l5 -236h292l2 -88h-389
l-5 250c-31 -7 -62 -15 -79 -37c-14 -19 -17 -46 -17 -75c0 -19 1 -39 1 -58c0 -49 -8 -90 -66 -90h-178c-115 0 -41 161 -91 223c-44 55 -177 21 -179 111l-5 252c-2 90 132 56 174 111c14 19 17 46 17 75c0 19 -1 39 -1 58c0 49 8 90 66 90h179z" />
    <glyph glyph-name="caron" unicode="&#x2c7;" horiz-adv-x="275" 
d="M198 900h87l-103 -180h-118l-110 180h87l81 -103z" />
    <glyph glyph-name="eth" unicode="&#xf0;" horiz-adv-x="688" 
d="M199 696l-2 93l127 47c-43 56 -93 108 -148 154h125c40 -38 76 -79 109 -122l189 70l1 -94l-138 -51c96 -152 155 -333 155 -516c0 -73 -110 -46 -145 -93c-11 -15 -14 -37 -14 -61c0 -20 2 -41 2 -60c0 -40 -8 -73 -57 -73h-131c-56 0 -60 45 -60 94v18
c0 31 -1 62 -16 82c-37 47 -147 20 -149 95l-4 207c-2 75 110 48 145 95c11 15 13 37 13 61c0 18 -1 36 -1 54h-1zM482 523c-19 8 -40 13 -50 29c-6 9 -7 22 -7 36c0 18 3 37 3 54c0 25 -7 45 -39 45h-131c-30 0 -37 -17 -37 -40c0 -20 5 -44 5 -65c0 -11 -1 -22 -6 -30
c-18 -31 -82 -23 -81 -66l5 -207c1 -43 64 -35 83 -66c6 -9 7 -22 7 -36c0 -18 -2 -37 -2 -54c0 -25 6 -45 38 -45h132c30 0 36 17 36 40c0 20 -5 44 -5 65c0 11 1 22 6 30c18 30 81 23 81 65c0 83 -15 167 -38 245zM471 560c-10 29 -21 56 -33 84v-14c0 -35 10 -56 33 -70z
" />
    <glyph glyph-name="Rcaron" unicode="&#x158;" horiz-adv-x="662" 
d="M92 0l-18 900h305c64 0 40 -94 79 -125c16 -13 42 -14 68 -14h10c40 0 78 -1 79 -47l2 -102c1 -46 -37 -48 -77 -48h-10c-26 0 -51 0 -67 -13c-29 -24 -20 -87 -44 -113l236 -438h-113l-221 426h-141l8 -426h-96zM361 1147h88l-103 -180h-118l-110 180h87l80 -102z
M172 812l6 -298h209c34 0 22 50 43 66c7 5 18 6 29 6h26c19 0 35 3 35 26l-2 102c0 23 -17 26 -36 26h-26c-11 0 -22 1 -29 6c-22 16 -12 66 -46 66h-209z" />
    <glyph glyph-name="zacute" unicode="&#x17a;" horiz-adv-x="485" 
d="M19 677l-2 88h420l2 -100l-308 -577h319l2 -88h-419l-2 100l307 577h-319zM273 1167h119l-139 -180h-89z" />
    <glyph glyph-name="uring" unicode="&#x16f;" 
d="M443 168c-30 -11 -51 -22 -51 -62c0 -23 6 -49 6 -71c0 -26 -8 -45 -41 -45h-98c-77 0 -29 109 -64 150c-32 38 -126 10 -127 74l-11 551h97l11 -551c1 -31 46 -24 61 -45c5 -7 6 -16 6 -27c0 -10 -1 -20 -1 -30c0 -19 4 -34 27 -34h97c21 0 25 12 25 29
c0 12 -2 26 -2 39c0 9 1 17 5 23c14 21 61 14 60 45l-11 551h96l16 -765h-97zM310 1137h-39c-14 0 -6 -20 -12 -27s-24 -1 -24 -13l1 -41c0 -12 19 -6 25 -13c7 -7 -2 -27 12 -27h40c14 0 5 20 11 27s24 1 24 13l-1 41c0 12 -18 6 -24 13c-7 7 1 27 -13 27zM309 1196
c34 0 17 -49 35 -66s67 2 68 -33l1 -41c1 -35 -49 -16 -67 -33c-17 -17 2 -66 -32 -66h-40c-34 0 -16 49 -34 66s-68 -2 -69 33v41c-1 35 49 16 67 33c17 17 -2 66 32 66h39z" />
    <glyph glyph-name="I" unicode="I" horiz-adv-x="306" 
d="M105 0l-18 900h97l18 -900h-97z" />
    <glyph glyph-name="ntilde" unicode="&#xf1;" 
d="M79 0l-16 765h97l3 -168c24 6 50 11 63 28c8 11 10 27 10 45c0 16 -1 34 -1 50c0 31 6 55 43 55h97c40 0 45 -29 45 -62v-36c0 -20 2 -39 11 -52c26 -36 107 -19 108 -74l11 -551h-97l-11 551c0 23 -33 26 -42 45c-2 5 -4 11 -4 17c0 16 5 34 5 49c0 14 -5 25 -24 25h-97
c-47 0 -16 -66 -37 -91c-20 -23 -80 -5 -79 -45l11 -551h-96zM192 991h-78c-1 43 62 20 84 42s-3 84 40 84c42 0 77 -34 119 -34c16 0 8 24 16 32c9 8 32 -1 32 16h78c1 -43 -62 -20 -84 -42s3 -84 -40 -84c-42 0 -77 34 -119 34c-16 0 -8 -24 -16 -32c-9 -8 -32 1 -32 -16z
" />
    <glyph glyph-name="Uring" unicode="&#x16e;" horiz-adv-x="778" 
d="M672 900l14 -676c2 -79 -113 -36 -152 -77c-40 -41 7 -157 -73 -157h-143c-80 0 -38 116 -79 157s-154 -2 -156 77l-13 676h97l13 -676c1 -45 67 -23 90 -48c25 -26 -4 -98 46 -98h143c50 0 19 72 42 98c22 25 89 3 88 48l-13 676h96zM391 1118h-39c-14 0 -6 -20 -12 -27
s-24 -1 -24 -13l1 -41c0 -12 19 -6 25 -13c7 -7 -2 -27 12 -27h40c14 0 5 20 11 27s24 1 24 13v41c0 12 -19 6 -25 13c-7 7 1 27 -13 27zM390 1177c34 0 17 -49 35 -66s67 2 68 -33l1 -41c1 -35 -49 -16 -67 -33c-17 -17 2 -66 -32 -66h-39c-34 0 -17 49 -35 66
s-67 -2 -68 33l-1 41c-1 35 49 16 67 33c17 17 -2 66 32 66h39z" />
    <glyph glyph-name="tcedilla" unicode="&#x163;" horiz-adv-x="354" 
d="M-3 677l-1 88h117l-4 225h96l5 -225h117l2 -88h-117l13 -677h-24l-27 -85h33c47 0 21 -67 45 -91c23 -24 87 0 88 -45l1 -69c1 -45 -64 -21 -86 -45c-23 -24 6 -91 -41 -91h-57c-52 0 -13 83 -58 99l9 26c9 -5 23 -3 29 -11c10 -12 -4 -44 19 -44h56c12 0 14 8 14 18
c0 3 -1 7 -1 11c0 6 1 11 4 15c8 11 35 4 35 22l-2 69c0 18 -26 10 -35 21c-10 12 4 45 -19 45h-128l49 155h-1l-13 677h-118z" />
    <glyph glyph-name="ucircumflex" unicode="&#xfb;" 
d="M443 168c-30 -11 -51 -22 -51 -62c0 -23 6 -49 6 -71c0 -26 -8 -45 -41 -45h-98c-77 0 -29 109 -64 150c-32 38 -126 10 -127 74l-11 551h97l11 -551c1 -31 46 -24 61 -45c5 -7 6 -16 6 -27c0 -10 -1 -20 -1 -30c0 -19 4 -34 27 -34h97c21 0 25 12 25 29
c0 12 -2 26 -2 39c0 9 1 17 5 23c14 21 61 14 60 45l-11 551h96l16 -765h-97zM291 1089l-76 -102h-87l103 180h118l110 -180h-87z" />
    <glyph glyph-name="Egrave" unicode="&#xc8;" horiz-adv-x="609" 
d="M92 0l-18 900h471l2 -88h-375l5 -246h327l1 -88h-326l8 -390h375l1 -88h-471zM142 1147h119l116 -180h-89z" />
    <glyph glyph-name="j" unicode="j" horiz-adv-x="275" 
d="M181 765l20 -981c1 -50 -73 -33 -96 -64c-7 -10 -9 -24 -9 -39c0 -14 2 -29 2 -43c0 -26 -6 -48 -38 -48h-51c-37 0 -40 28 -40 59v20c0 14 0 27 -4 38l25 8c-1 -6 -2 -13 -2 -18c0 -11 4 -19 19 -19h51c14 0 19 8 19 18c0 12 -6 29 -6 42c0 26 33 24 33 46l-20 981h97z
M133 1122c22 0 10 -32 22 -44s45 1 45 -22c0 -22 -33 -11 -44 -22c-11 -12 2 -43 -20 -43s-11 31 -23 43s-44 0 -44 23c0 22 32 10 43 21c11 12 -1 44 21 44z" />
    <glyph glyph-name="Oacute" unicode="&#xd3;" horiz-adv-x="917" 
d="M489 1147h119l-139 -180h-89zM548 822h-212c-44 0 -49 -32 -49 -69c0 -12 1 -25 1 -37c0 -23 -3 -44 -14 -58c-32 -41 -131 -15 -130 -82l5 -252c1 -67 101 -41 134 -82c38 -46 -16 -164 68 -164h212c44 0 49 32 49 69c0 12 -1 25 -1 37c0 23 3 44 14 58
c32 41 131 15 130 82l-5 252c-1 67 -101 41 -134 82c-38 46 16 164 -68 164zM546 910c114 0 47 -162 102 -223c51 -57 197 -11 199 -111l5 -252c2 -100 -146 -54 -195 -111c-52 -61 22 -223 -92 -223h-212c-114 0 -47 162 -102 223c-51 57 -197 11 -199 111l-5 252
c-2 100 146 54 195 111c52 61 -22 223 92 223h212z" />
    <glyph glyph-name="ae" unicode="&#xe6;" horiz-adv-x="969" 
d="M178 627c2 9 2 18 2 28c0 20 -2 41 -2 60c0 33 7 60 48 60h93c46 0 50 -33 50 -72v-35c0 -24 2 -46 13 -61c24 -32 89 -26 114 -54c18 6 35 14 45 28c9 13 11 32 11 51c0 26 -4 54 -4 79c0 36 9 64 54 64h108c49 0 58 -34 58 -75c0 -18 -2 -38 -2 -57c0 -24 3 -46 14 -62
c32 -46 133 -27 134 -95c1 -49 2 -99 3 -148h-407c0 -20 1 -39 1 -59c1 -37 54 -37 69 -66c4 -8 5 -18 5 -28c0 -22 -6 -47 -6 -68c0 -22 8 -39 37 -39h108c23 0 25 19 25 39v6c0 13 0 27 7 35c17 20 68 5 67 39l54 -44c-31 -6 -69 -4 -88 -24c-34 -37 8 -139 -63 -139h-108
c-49 0 -57 34 -57 75c0 18 1 38 1 57c0 24 -2 46 -13 62c-8 12 -21 19 -36 25v-30c1 -62 -90 -29 -121 -62c-32 -34 7 -127 -58 -127h-92c-65 0 -30 93 -63 127c-32 33 -123 0 -124 62l-2 104c-1 62 90 30 121 63c32 34 -7 126 58 126h93c33 0 38 -24 38 -52
c0 -10 -1 -21 -1 -31c0 -17 1 -32 9 -43c9 -12 25 -17 42 -22l-3 162l-1 38c-1 31 -45 30 -58 54c-4 7 -5 14 -5 23c0 17 4 37 4 53c0 19 -6 33 -30 33h-92c-23 0 -29 -12 -29 -29c0 -11 3 -24 5 -37zM326 384h-92c-20 0 -21 -16 -21 -34c0 -13 0 -26 -6 -34
c-14 -17 -58 -4 -57 -33l2 -104c1 -29 43 -16 58 -33c16 -19 -5 -68 30 -68h93c19 0 21 13 21 29c0 4 -1 10 -1 14c0 10 1 19 6 25c14 17 58 4 57 33l-2 104c-1 29 -43 16 -58 33c-16 19 5 68 -30 68zM507 486l1 -60h310l-1 60c-1 37 -54 37 -69 66c-4 8 -5 18 -5 28
c0 22 6 47 6 68c0 22 -8 39 -37 39h-108c-28 0 -35 -15 -35 -35c0 -23 9 -52 9 -76c0 -9 -2 -17 -5 -24c-14 -29 -67 -29 -66 -66z" />
    <glyph glyph-name="c" unicode="c" horiz-adv-x="626" 
d="M528 218c-28 -7 -57 -14 -72 -34c-10 -15 -13 -36 -13 -58s3 -45 3 -66c0 -39 -9 -70 -56 -70h-125c-53 0 -59 39 -59 85c0 12 1 24 1 36c0 28 -2 55 -16 73c-35 47 -143 22 -144 95l-4 207c-1 73 107 48 140 95c10 15 13 36 13 58s-2 45 -2 66c0 39 9 70 56 70h124
c53 0 59 -39 59 -85v-36c0 -28 1 -55 15 -73c15 -20 45 -27 73 -34l-25 -61c-1 41 -61 36 -79 66c-5 9 -7 21 -7 33c0 19 4 41 4 59c0 24 -7 43 -38 43h-125c-29 0 -36 -17 -36 -39c0 -21 7 -46 7 -68c0 -10 -2 -20 -6 -28c-17 -30 -78 -25 -77 -66l5 -207
c1 -41 61 -36 79 -66c5 -9 7 -21 7 -33c0 -19 -4 -41 -4 -59c0 -24 7 -43 38 -43h124c29 0 36 17 36 39c0 21 -6 46 -6 68c0 10 2 20 6 28c17 30 77 25 76 66z" />
    <glyph glyph-name="Lcaron" unicode="&#x13d;" horiz-adv-x="603" 
d="M92 0l-18 900h96l17 -812h375l1 -88h-471zM373 900h100l-116 -292h-74z" />
    <glyph glyph-name="D" unicode="D" horiz-adv-x="825" 
d="M92 0l-18 900h371c112 0 47 -160 102 -219c52 -56 199 -6 201 -108l5 -246c2 -102 -147 -52 -197 -108c-52 -59 19 -219 -93 -219h-371zM187 88h274c46 0 49 36 49 76v17c0 26 1 51 14 67c33 40 133 10 132 79l-4 246c-1 69 -102 39 -136 79c-38 44 12 160 -70 160h-274z
" />
    <glyph glyph-name="icircumflex" unicode="&#xee;" horiz-adv-x="249" 
d="M76 0l-15 765h97l15 -765h-97zM108 1089l-76 -102h-88l103 180h118l111 -180h-88z" />
    <glyph glyph-name="gbreve" unicode="&#x11f;" horiz-adv-x="668" 
d="M488 231c-36 -16 -66 -27 -66 -78c0 -32 10 -69 10 -99c0 -31 -10 -54 -51 -54h-120c-52 0 -58 39 -58 83v38c0 27 -2 53 -15 70c-34 46 -140 23 -141 95l-4 203c-1 72 104 49 137 95c10 14 13 33 13 55s-3 46 -3 67c0 38 8 69 55 69h121c44 0 53 -26 53 -60
c0 -27 -6 -58 -6 -86c0 -17 2 -33 9 -45c12 -20 37 -30 60 -40l-5 221h97l19 -925c1 -71 -104 -40 -138 -82c-13 -16 -15 -42 -15 -68v-22c0 -41 -4 -78 -51 -78h-120c-89 0 -28 128 -76 172l29 32c11 -8 14 -24 14 -42c0 -10 -1 -22 -1 -32c0 -23 4 -42 32 -42h121
c25 0 30 16 30 36c0 14 -2 30 -2 44c0 11 1 22 6 29c17 26 75 14 74 53zM488 1174l1 -52c1 -51 -72 -19 -98 -43c-25 -22 -3 -86 -47 -86h-75c-44 0 -26 64 -51 86c-27 24 -99 -8 -100 43l-1 52h78l1 -52c0 -12 8 -14 18 -14h14c6 0 11 0 15 -3c11 -8 6 -34 24 -34h76
c18 0 11 26 22 34c4 3 9 3 15 3h14c10 0 18 2 18 14l-1 52h77zM367 687h-120c-28 0 -35 -16 -35 -37s6 -47 6 -69c0 -10 -1 -19 -5 -26c-16 -30 -75 -26 -74 -66l4 -203c1 -40 60 -36 77 -66c5 -9 6 -19 6 -31c0 -19 -4 -41 -4 -59c0 -24 7 -42 37 -42h120c28 0 36 16 36 37
s-7 47 -7 69c0 10 1 19 5 26c16 30 75 26 74 66l-4 203c-1 40 -59 36 -76 66c-5 9 -7 19 -7 31c0 19 4 41 4 59c0 24 -7 42 -37 42z" />
    <glyph glyph-name="ij" unicode="&#x133;" horiz-adv-x="603" 
d="M103 765h96l16 -765h-97zM386 -266c0 33 46 23 46 50l-20 981h97l19 -981c1 -55 -80 -32 -106 -64c-10 -12 -11 -30 -11 -50v-21c0 -31 -3 -59 -39 -59h-68c-60 0 -33 75 -49 117l27 10v-15c0 -13 3 -24 20 -24h68c16 0 19 9 19 21c0 11 -3 24 -3 35zM459 1109
c22 0 11 -32 23 -44s44 1 44 -22c0 -22 -32 -10 -43 -21c-11 -12 1 -44 -21 -44s-11 32 -23 44s-44 -1 -44 22c0 22 32 10 43 21c11 12 -1 44 21 44zM138 1109c22 0 11 -32 23 -44s44 1 44 -22c0 -22 -32 -10 -43 -21c-11 -12 1 -44 -21 -44s-11 32 -23 44s-44 -1 -44 22
c0 22 33 10 44 21c11 12 -2 44 20 44z" />
    <glyph glyph-name="n" unicode="n" 
d="M79 0l-16 765h97l3 -168c24 6 50 11 63 28c8 11 10 27 10 45c0 16 -1 34 -1 50c0 31 6 55 43 55h97c40 0 45 -29 45 -62v-36c0 -20 2 -39 11 -52c26 -36 107 -19 108 -74l11 -551h-97l-11 551c0 23 -33 26 -42 45c-2 5 -4 11 -4 17c0 16 5 34 5 49c0 14 -5 25 -24 25h-97
c-47 0 -16 -66 -37 -91c-20 -23 -80 -5 -79 -45l11 -551h-96z" />
    <glyph glyph-name="percent" unicode="%" horiz-adv-x="1074" 
d="M202 -45l543 990h109l-542 -990h-110zM322 586c0 30 39 19 39 43l-1 93c0 20 -30 16 -39 30c-3 4 -3 10 -3 16c0 8 1 16 1 23c0 12 -3 21 -17 21h-61c-13 0 -16 -8 -16 -18c0 -9 2 -20 2 -29c0 -30 -40 -19 -40 -43l2 -93c0 -20 29 -16 38 -30c3 -4 4 -10 4 -16
c0 -8 -1 -16 -1 -23c0 -12 3 -21 17 -21h60c13 0 17 8 17 18c0 9 -2 20 -2 29zM300 900c61 0 24 -86 53 -119c26 -30 102 -7 103 -59l2 -93c1 -52 -76 -29 -101 -59c-27 -33 13 -119 -48 -119h-60c-61 0 -24 86 -53 119c-26 30 -103 7 -104 59l-2 93c-1 52 77 29 102 59
c27 33 -13 119 48 119h60zM829 135c0 30 40 19 40 43l-2 93c0 20 -29 16 -38 30c-3 4 -4 10 -4 16c0 8 2 16 2 23c0 12 -4 21 -18 21h-60c-13 0 -17 -8 -17 -18c0 -9 3 -20 3 -29c0 -30 -40 -19 -40 -43l2 -93c0 -20 29 -16 38 -30c3 -4 3 -10 3 -16c0 -8 -1 -16 -1 -23
c0 -12 3 -21 17 -21h61c13 0 16 8 16 18c0 9 -2 20 -2 29zM808 449c61 0 23 -86 52 -119c26 -30 103 -7 104 -59l2 -93c1 -52 -76 -29 -101 -59c-27 -33 13 -119 -48 -119h-61c-61 0 -24 86 -53 119c-26 30 -102 7 -103 59l-2 93c-1 52 76 29 101 59c27 33 -13 119 48 119
h61z" />
    <glyph glyph-name="q" unicode="q" horiz-adv-x="668" 
d="M488 224c-35 -17 -65 -27 -65 -78c0 -32 10 -71 10 -102s-11 -54 -52 -54h-120c-52 0 -58 38 -58 82v43c0 27 -2 52 -15 69c-34 46 -140 23 -141 95l-4 207c-1 72 104 49 137 95c10 14 13 35 13 56c0 23 -3 47 -3 69c0 38 8 69 55 69h121c44 0 53 -26 53 -60
c0 -27 -6 -60 -6 -89c0 -17 2 -33 9 -45c12 -20 37 -29 60 -40l-5 224h97l24 -1165h-97zM367 687h-120c-29 0 -36 -16 -36 -38c0 -21 7 -48 7 -70c0 -10 -1 -20 -5 -27c-16 -30 -75 -26 -74 -66l5 -207c1 -40 59 -36 76 -66c5 -9 6 -20 6 -32c0 -20 -4 -42 -4 -61
c0 -24 6 -42 37 -42h121c29 0 35 16 35 38c0 21 -7 48 -7 70c0 10 2 20 6 27c16 30 73 26 73 65c0 69 -3 139 -4 208c-1 40 -59 36 -76 66c-5 9 -7 20 -7 32c0 20 5 42 5 61c0 24 -7 42 -38 42z" />
    <glyph glyph-name="Racute" unicode="&#x154;" horiz-adv-x="662" 
d="M92 0l-18 900h305c64 0 40 -94 79 -125c16 -13 42 -14 68 -14h10c40 0 78 -1 79 -47l2 -102c1 -46 -37 -48 -77 -48h-10c-26 0 -51 0 -67 -13c-29 -24 -20 -87 -44 -113l236 -438h-113l-221 426h-141l8 -426h-96zM331 1147h120l-139 -180h-89zM172 812l6 -298h209
c34 0 22 50 43 66c7 5 18 6 29 6h26c19 0 35 3 35 26l-2 102c0 23 -17 26 -36 26h-26c-11 0 -22 1 -29 6c-22 16 -12 66 -46 66h-209z" />
    <glyph glyph-name="x" unicode="x" horiz-adv-x="531" 
d="M20 765h107l131 -256l123 256h99l-171 -356l208 -409h-107l-153 300l-145 -300h-99l193 400z" />
    <glyph glyph-name="S" unicode="S" horiz-adv-x="681" 
d="M56 168l89 27c1 -42 61 -18 83 -39c22 -20 2 -78 42 -78h132c39 0 18 58 39 78c21 21 82 -2 81 39l-3 107c-1 36 -35 59 -68 77l-287 63c-58 32 -92 94 -93 160l-2 112c-1 67 97 31 131 66c34 34 -2 130 64 130h110c67 0 32 -97 68 -131c27 -26 91 -11 120 -32l-89 -16
c-15 11 -48 4 -62 18c-19 19 2 73 -35 73h-110c-37 0 -15 -53 -33 -72c-17 -19 -68 -2 -67 -36l2 -112c1 -30 17 -57 43 -72l287 -63c64 -35 117 -94 118 -165l2 -107c1 -74 -106 -32 -144 -69c-37 -35 -2 -136 -71 -136h-131c-70 0 -36 102 -75 137c-34 31 -116 4 -141 41z
" />
    <glyph glyph-name="A" unicode="A" horiz-adv-x="727" 
d="M13 0l283 900h100l318 -900h-103l-101 285h-314l-90 -285h-93zM479 373l-135 383l-121 -383h256z" />
    <glyph glyph-name="Y" unicode="Y" horiz-adv-x="681" 
d="M-11 900h112l233 -393l217 393h106l-276 -498l8 -402h-97l-8 402z" />
    <glyph glyph-name="oslash" unicode="&#xf8;" horiz-adv-x="655" 
d="M376 687h-125c-29 0 -36 -17 -36 -39c0 -21 7 -46 7 -68c0 -10 -2 -20 -6 -28c-17 -30 -78 -25 -77 -66l5 -207c0 -21 16 -30 34 -38l234 373c1 10 2 21 2 30c0 24 -7 43 -38 43zM374 775c53 0 59 -39 59 -85v-43l74 118h107l-131 -207c45 -17 109 -16 110 -72l4 -207
c1 -73 -108 -48 -141 -95c-10 -15 -13 -36 -13 -58s3 -45 3 -66c0 -39 -9 -70 -56 -70h-125c-53 0 -59 39 -59 85c0 12 1 24 1 36v7l-74 -118h-107l130 207c-45 17 -108 16 -109 72l-4 207c-1 73 107 48 140 95c10 15 13 36 13 58s-2 45 -2 66c0 39 9 70 56 70h124zM228 151
c-1 -10 -2 -21 -2 -30c0 -24 7 -43 38 -43h124c29 0 36 17 36 39c0 21 -6 46 -6 68c0 10 2 20 6 28c17 30 77 25 76 66l-4 207c0 21 -16 30 -34 38z" />
    <glyph glyph-name="dieresis" unicode="&#xa8;" horiz-adv-x="275" 
d="M3 855c22 0 10 -32 22 -44s44 1 44 -22c0 -22 -32 -10 -43 -21c-11 -12 1 -44 -21 -44s-10 32 -22 44s-45 -1 -45 22c0 22 33 10 44 21c11 12 -1 44 21 44zM238 855c22 0 11 -32 23 -44s44 1 44 -22c0 -22 -32 -10 -43 -21c-11 -12 1 -44 -21 -44s-11 32 -23 44
s-44 -1 -44 22c0 22 33 10 44 21c11 12 -2 44 20 44z" />
    <glyph glyph-name="o" unicode="o" horiz-adv-x="655" 
d="M376 687h-125c-29 0 -36 -17 -36 -39c0 -21 7 -46 7 -68c0 -10 -2 -20 -6 -28c-17 -30 -78 -25 -77 -66l5 -207c1 -41 61 -36 79 -66c5 -9 7 -21 7 -33c0 -19 -4 -41 -4 -59c0 -24 7 -43 38 -43h124c29 0 36 17 36 39c0 21 -6 46 -6 68c0 10 2 20 6 28c17 30 77 25 76 66
l-4 207c-1 41 -61 36 -79 66c-5 9 -7 21 -7 33c0 19 4 41 4 59c0 24 -7 43 -38 43zM374 775c53 0 59 -39 59 -85v-36c0 -28 1 -55 15 -73c35 -47 144 -22 145 -95l4 -207c1 -73 -108 -48 -141 -95c-10 -15 -13 -36 -13 -58s3 -45 3 -66c0 -39 -9 -70 -56 -70h-125
c-53 0 -59 39 -59 85c0 12 1 24 1 36c0 28 -2 55 -16 73c-35 47 -143 22 -144 95l-4 207c-1 73 107 48 140 95c10 15 13 36 13 58s-2 45 -2 66c0 39 9 70 56 70h124z" />
    <glyph glyph-name="sacute" unicode="&#x15b;" horiz-adv-x="524" 
d="M42 150l91 21c1 -28 41 -15 55 -31c15 -17 -4 -62 28 -62h89c31 0 11 45 26 62c14 16 54 3 53 31l-1 85c-1 29 -27 48 -51 65l-193 40c-50 35 -78 91 -79 151l-2 89c-1 54 77 29 104 59c28 31 -8 115 51 115h67c60 0 25 -86 54 -117c21 -23 74 -12 97 -31l-86 -26
c0 21 -32 14 -42 28c-4 5 -4 13 -4 21v13c0 13 -2 24 -17 24h-67c-14 0 -17 -9 -17 -21c0 -6 1 -13 1 -19c0 -7 -1 -13 -4 -17c-10 -14 -40 -8 -40 -29l2 -89c1 -27 21 -47 43 -63l193 -40c51 -36 86 -91 87 -153l1 -85c1 -60 -86 -29 -117 -61s3 -120 -58 -120h-88
c-62 0 -29 89 -61 121c-27 27 -95 7 -115 39zM292 1167h120l-140 -180h-88z" />
    <glyph glyph-name="J" unicode="J" horiz-adv-x="576" 
d="M473 900l14 -703c1 -68 -97 -32 -131 -68c-34 -37 9 -139 -62 -139h-109c-62 0 -40 78 -58 122l30 12c1 -23 0 -46 26 -46h109c24 0 24 19 24 40v5c0 13 1 27 8 35c17 20 67 4 66 39l-14 703h97z" />
    <glyph glyph-name="dotaccent" unicode="&#x2d9;" horiz-adv-x="236" 
d="M101 855c22 0 10 -32 22 -44s45 1 45 -22c0 -22 -33 -10 -44 -21c-11 -12 1 -44 -21 -44s-10 32 -22 44s-44 -1 -44 22c0 22 32 10 43 21c11 12 -1 44 21 44z" />
    <glyph glyph-name="y" unicode="y" horiz-adv-x="550" 
d="M-9 765h102l182 -582l159 582h94l-318 -1165h-94l112 410z" />
    <glyph glyph-name="yacute" unicode="&#xfd;" horiz-adv-x="550" 
d="M-9 765h102l182 -582l159 582h94l-318 -1165h-94l112 410zM305 1167h120l-140 -180h-88z" />
    <glyph glyph-name="dotlessj" unicode="&#x237;" horiz-adv-x="275" 
d="M181 765l20 -981c1 -50 -73 -33 -96 -64c-7 -10 -9 -24 -9 -39c0 -14 2 -29 2 -43c0 -26 -6 -48 -38 -48h-51c-37 0 -40 28 -40 59v20c0 14 0 27 -4 38l25 8c-1 -6 -2 -13 -2 -18c0 -11 4 -19 19 -19h51c14 0 19 8 19 18c0 12 -6 29 -6 42c0 26 33 24 33 46l-20 981h97z
" />
    <glyph glyph-name="braceleft" unicode="{" horiz-adv-x="400" 
d="M361 942c-7 -41 -3 -94 -30 -118c-19 -17 -52 -18 -85 -18h-16c-51 0 -98 -3 -97 -62h97l7 -343c1 -65 -89 -24 -124 -57c-16 -15 -15 -44 -18 -69c4 -25 5 -54 21 -69c36 -33 125 8 126 -57l7 -343l46 469l93 -667c-9 41 -7 94 -35 118c-20 17 -53 18 -86 18h-16
c-51 0 -98 3 -99 62l-7 343c-1 31 -43 12 -60 26c-15 13 -4 52 -31 52l-2 96c27 0 14 39 29 52c16 14 60 -5 59 26l-7 343h97l65 -469z" />
    <glyph glyph-name="numbersign" unicode="#" horiz-adv-x="707" 
d="M21 271l-2 88h141l27 182h-145l-2 88h159l39 271h97l-39 -271h149l39 271h97l-39 -271h127l1 -88h-141l-26 -182h145l2 -88h-160l-39 -271h-97l39 271h-148l-39 -271h-97l39 271h-127zM406 359l26 182h-149l-26 -182h149z" />
    <glyph glyph-name="quoteleft" unicode="&#x2018;" horiz-adv-x="334" 
d="M164 900h74l-91 -292h-99z" />
    <glyph glyph-name="ffl" unicode="&#xfb04;" horiz-adv-x="910" 
d="M24 677l-2 88h100l-3 123c-1 44 63 17 86 37c21 19 3 75 41 75h35c30 0 26 -35 34 -59v-53c0 11 -16 3 -22 8c-5 4 -3 16 -11 16h-34c-8 0 -6 -12 -11 -16c-6 -5 -21 3 -21 -8l2 -123h202l-3 123c-1 44 63 17 86 37c21 19 3 75 41 75h35c30 0 26 -35 34 -59v-53
c0 11 -16 3 -22 8c-5 4 -3 16 -11 16h-34c-8 0 -6 -12 -11 -16c-6 -5 -21 3 -21 -8l2 -123h105l2 -88h-105l14 -677h-97l-14 677h-201l14 -677h-97l-14 677h-99zM735 0l-20 990h97l20 -990h-97z" />
    <glyph glyph-name="perthousandzero" horiz-adv-x="452" 
d="M250 361h-63c-14 0 -16 -8 -16 -19c0 -8 1 -18 1 -27c0 -6 -1 -10 -3 -14c-9 -14 -38 -10 -38 -30l2 -93c0 -20 30 -16 39 -30c3 -5 4 -10 4 -17s-1 -14 -1 -21c0 -12 3 -22 18 -22h63c14 0 16 8 16 19c0 8 -1 18 -1 27c0 6 1 10 3 14c9 14 38 10 38 30l-2 93
c0 20 -30 16 -39 30c-3 5 -4 10 -4 17s1 14 1 21c0 12 -3 22 -18 22zM248 449c61 0 25 -87 54 -119c27 -30 104 -6 105 -59l2 -93c1 -53 -77 -29 -103 -59c-28 -32 12 -119 -49 -119h-62c-61 0 -25 87 -54 119c-27 30 -104 6 -105 59l-2 93c-1 53 77 29 103 59
c28 32 -12 119 49 119h62z" />
    <glyph glyph-name="lcaron" unicode="&#x13e;" horiz-adv-x="254" 
d="M79 0l-20 990h97l19 -990h-96zM300 990h100l-116 -292h-74z" />
    <glyph glyph-name="three" unicode="3" 
d="M226 494h110c37 0 14 54 32 73c17 19 68 0 67 35l-2 112c-1 35 -51 16 -69 35s2 73 -35 73h-108c-37 0 -14 -54 -32 -73c-17 -19 -68 0 -67 -35l-59 42c31 6 73 3 93 23c34 34 -4 131 63 131h109c67 0 33 -97 68 -131c36 -35 132 3 133 -65l3 -112c1 -38 -29 -40 -61 -40
h-18c-21 0 -40 -1 -53 -11c-20 -16 -18 -52 -27 -77c16 -30 6 -86 31 -111c36 -35 133 3 134 -65l2 -112c1 -68 -97 -30 -131 -65c-34 -34 4 -131 -63 -131h-109c-67 0 -33 97 -68 131c-21 20 -62 17 -93 23l56 42c1 -35 51 -16 69 -35s-2 -73 35 -73h108c37 0 14 54 32 73
c17 19 68 0 67 35l-2 112c-1 35 -50 16 -68 35s2 73 -35 73h-110z" />
    <glyph glyph-name="Ucircumflex" unicode="&#xdb;" horiz-adv-x="778" 
d="M672 900l14 -676c2 -79 -113 -36 -152 -77c-40 -41 7 -157 -73 -157h-143c-80 0 -38 116 -79 157s-154 -2 -156 77l-13 676h97l13 -676c1 -45 67 -23 90 -48c25 -26 -4 -98 46 -98h143c50 0 19 72 42 98c22 25 89 3 88 48l-13 676h96zM373 1070l-77 -103h-87l103 180h118
l110 -180h-87z" />
    <glyph glyph-name="ohungarumlaut" unicode="&#x151;" horiz-adv-x="655" 
d="M152 987l99 180h117l-130 -180h-86zM448 1167h116l-129 -180h-87zM376 687h-125c-29 0 -36 -17 -36 -39c0 -21 7 -46 7 -68c0 -10 -2 -20 -6 -28c-17 -30 -78 -25 -77 -66l5 -207c1 -41 61 -36 79 -66c5 -9 7 -21 7 -33c0 -19 -4 -41 -4 -59c0 -24 7 -43 38 -43h124
c29 0 36 17 36 39c0 21 -6 46 -6 68c0 10 2 20 6 28c17 30 77 25 76 66l-4 207c-1 41 -61 36 -79 66c-5 9 -7 21 -7 33c0 19 4 41 4 59c0 24 -7 43 -38 43zM374 775c53 0 59 -39 59 -85v-36c0 -28 1 -55 15 -73c35 -47 144 -22 145 -95l4 -207c1 -73 -108 -48 -141 -95
c-10 -15 -13 -36 -13 -58s3 -45 3 -66c0 -39 -9 -70 -56 -70h-125c-53 0 -59 39 -59 85c0 12 1 24 1 36c0 28 -2 55 -16 73c-35 47 -143 22 -144 95l-4 207c-1 73 107 48 140 95c10 15 13 36 13 58s-2 45 -2 66c0 39 9 70 56 70h124z" />
    <glyph glyph-name="bracketleft" unicode="[" horiz-adv-x="367" 
d="M126 -400l-27 1345h210l1 -88h-112l23 -1169h113l2 -88h-210z" />
    <glyph glyph-name="oacute" unicode="&#xf3;" horiz-adv-x="655" 
d="M358 1167h119l-139 -180h-89zM376 687h-125c-29 0 -36 -17 -36 -39c0 -21 7 -46 7 -68c0 -10 -2 -20 -6 -28c-17 -30 -78 -25 -77 -66l5 -207c1 -41 61 -36 79 -66c5 -9 7 -21 7 -33c0 -19 -4 -41 -4 -59c0 -24 7 -43 38 -43h124c29 0 36 17 36 39c0 21 -6 46 -6 68
c0 10 2 20 6 28c17 30 77 25 76 66l-4 207c-1 41 -61 36 -79 66c-5 9 -7 21 -7 33c0 19 4 41 4 59c0 24 -7 43 -38 43zM374 775c53 0 59 -39 59 -85v-36c0 -28 1 -55 15 -73c35 -47 144 -22 145 -95l4 -207c1 -73 -108 -48 -141 -95c-10 -15 -13 -36 -13 -58s3 -45 3 -66
c0 -39 -9 -70 -56 -70h-125c-53 0 -59 39 -59 85c0 12 1 24 1 36c0 28 -2 55 -16 73c-35 47 -143 22 -144 95l-4 207c-1 73 107 48 140 95c10 15 13 36 13 58s-2 45 -2 66c0 39 9 70 56 70h124z" />
    <glyph glyph-name="nine" unicode="9" horiz-adv-x="642" 
d="M140 165l7 38c17 -14 53 -10 67 -28c22 -27 -11 -97 39 -97h120c25 0 28 17 28 38v27c0 12 1 24 7 32c18 24 75 9 74 47l-6 290c-22 -6 -46 -10 -58 -27c-8 -11 -10 -26 -10 -43s2 -35 2 -51c0 -29 -6 -53 -42 -53h-120c-75 0 -34 108 -72 147c-37 38 -140 1 -141 72
l-3 134c-1 71 103 35 138 73c36 39 -9 146 66 146h120c75 0 34 -107 72 -146c37 -38 140 -2 141 -73l10 -469c1 -71 -104 -37 -139 -77c-37 -42 15 -155 -65 -155h-121c-80 0 -32 113 -71 155c-10 11 -26 17 -43 20zM358 822h-120c-45 0 -15 -63 -35 -87
c-18 -22 -75 -6 -74 -44l3 -134c1 -38 56 -21 75 -43c21 -24 -6 -88 39 -88h120c45 0 15 64 35 88c18 22 75 5 74 43l-3 134c-1 38 -56 22 -75 44c-21 24 6 87 -39 87z" />
    <glyph glyph-name="backslash" unicode="\" horiz-adv-x="491" 
d="M363 -45l-356 990h103l356 -990h-103z" />
    <glyph glyph-name="atilde" unicode="&#xe3;" horiz-adv-x="616" 
d="M537 0h-97l-2 139c-18 -4 -37 -9 -47 -22c-7 -10 -9 -25 -9 -40c0 -13 1 -26 1 -39c0 -26 -5 -48 -37 -48h-102c-65 0 -32 94 -66 127s-128 -4 -129 62l-2 104c-1 66 94 30 127 63s-5 126 60 126h102c37 0 39 -28 39 -60v-14c0 -20 1 -39 11 -52s29 -18 48 -22l-4 200
c-1 33 -50 29 -65 54c-4 7 -5 16 -5 26c0 15 3 33 3 48c0 20 -6 35 -31 35h-102c-24 0 -29 -13 -29 -31c0 -11 2 -24 3 -36l-27 7c2 10 4 21 4 33c0 17 -2 35 -2 51c0 35 7 64 49 64h102c50 0 52 -40 52 -83v-13c0 -28 1 -55 15 -72c32 -41 129 -17 130 -83zM172 991h-77
c-1 43 62 20 84 42s-3 84 40 84c42 0 76 -34 118 -34c16 0 8 24 16 32c9 8 33 -1 33 16h77c1 -43 -62 -20 -84 -42s3 -84 -40 -84c-42 0 -77 34 -119 34c-16 0 -7 -24 -15 -32c-9 -8 -33 1 -33 -16zM338 384h-102c-35 0 -13 -50 -30 -68c-16 -17 -63 -1 -62 -33l2 -104
c1 -32 47 -16 64 -33c17 -18 -3 -68 32 -68h102c35 0 13 50 30 68c16 17 64 1 63 33l-2 104c-1 32 -47 16 -64 33c-17 18 2 68 -33 68z" />
    <glyph glyph-name="Aacute" unicode="&#xc1;" horiz-adv-x="727" 
d="M13 0l283 900h100l318 -900h-103l-101 285h-314l-90 -285h-93zM394 1147h120l-140 -180h-89zM479 373l-135 383l-121 -383h256z" />
    <glyph glyph-name="ccedilla" unicode="&#xe7;" horiz-adv-x="626" 
d="M528 218c-28 -7 -57 -14 -72 -34c-10 -15 -13 -36 -13 -58s3 -45 3 -66c0 -39 -9 -70 -56 -70h-42l-23 -75h33c47 0 20 -67 44 -91c23 -24 87 0 88 -45l2 -69c1 -45 -65 -21 -87 -45c-23 -24 6 -91 -41 -91h-56c-52 0 -13 83 -58 99l9 26c9 -5 23 -3 29 -11
c10 -12 -5 -44 18 -44h57c12 0 13 8 13 18v11c0 6 0 11 3 15c8 11 35 4 35 22l-1 69c0 18 -27 10 -36 21c-10 12 5 45 -18 45h-129l47 145h-12c-53 0 -59 39 -59 85c0 12 1 24 1 36c0 28 -2 55 -16 73c-35 47 -143 22 -144 95l-4 207c-1 73 107 48 140 95c10 15 13 36 13 58
s-2 45 -2 66c0 39 9 70 56 70h124c53 0 59 -39 59 -85v-36c0 -28 1 -55 15 -73c15 -20 45 -27 73 -34l-25 -61c-1 41 -61 36 -79 66c-5 9 -7 21 -7 33c0 19 4 41 4 59c0 24 -7 43 -38 43h-125c-29 0 -36 -17 -36 -39c0 -21 7 -46 7 -68c0 -10 -2 -20 -6 -28
c-17 -30 -78 -25 -77 -66l5 -207c1 -41 61 -36 79 -66c5 -9 7 -21 7 -33c0 -19 -4 -41 -4 -59c0 -24 7 -43 38 -43h124c29 0 36 17 36 39c0 21 -6 46 -6 68c0 10 2 20 6 28c17 30 77 25 76 66z" />
    <glyph glyph-name="Lslash" unicode="&#x141;" horiz-adv-x="616" 
d="M576 0h-471l-7 319l-77 -54l-2 100l77 54l-9 481h97l8 -414l214 149l2 -100l-214 -150l6 -297h375z" />
    <glyph glyph-name="Sacute" unicode="&#x15a;" horiz-adv-x="681" 
d="M56 168l89 27c1 -42 61 -18 83 -39c22 -20 2 -78 42 -78h132c39 0 18 58 39 78c21 21 82 -2 81 39l-3 107c-1 36 -35 59 -68 77l-287 63c-58 32 -92 94 -93 160l-2 112c-1 67 97 31 131 66c34 34 -2 130 64 130h110c67 0 32 -97 68 -131c27 -26 91 -11 120 -32l-89 -16
c-15 11 -48 4 -62 18c-19 19 2 73 -35 73h-110c-37 0 -15 -53 -33 -72c-17 -19 -68 -2 -67 -36l2 -112c1 -30 17 -57 43 -72l287 -63c64 -35 117 -94 118 -165l2 -107c1 -74 -106 -32 -144 -69c-37 -35 -2 -136 -71 -136h-131c-70 0 -36 102 -75 137c-34 31 -116 4 -141 41z
M367 1147h120l-139 -180h-89z" />
    <glyph glyph-name="visiblespace" unicode="&#x2420;" horiz-adv-x="524" 
d="M26 0h97l2 -116h278l-2 116h97c1 -68 3 -136 4 -204h-472c-1 68 -3 136 -4 204z" />
    <glyph glyph-name="aring" unicode="&#xe5;" horiz-adv-x="616" 
d="M537 0h-97l-2 139c-18 -4 -37 -9 -47 -22c-7 -10 -9 -25 -9 -40c0 -13 1 -26 1 -39c0 -26 -5 -48 -37 -48h-102c-65 0 -32 94 -66 127s-128 -4 -129 62l-2 104c-1 66 94 30 127 63s-5 126 60 126h102c37 0 39 -28 39 -60v-14c0 -20 1 -39 11 -52s29 -18 48 -22l-4 200
c-1 33 -50 29 -65 54c-4 7 -5 16 -5 26c0 15 3 33 3 48c0 20 -6 35 -31 35h-102c-24 0 -29 -13 -29 -31c0 -11 2 -24 3 -36l-27 7c2 10 4 21 4 33c0 17 -2 35 -2 51c0 35 7 64 49 64h102c50 0 52 -40 52 -83v-13c0 -28 1 -55 15 -72c32 -41 129 -17 130 -83zM338 384h-102
c-35 0 -13 -50 -30 -68c-16 -17 -63 -1 -62 -33l2 -104c1 -32 47 -16 64 -33c17 -18 -3 -68 32 -68h102c35 0 13 50 30 68c16 17 64 1 63 33l-2 104c-1 32 -47 16 -64 33c-17 18 2 68 -33 68zM297 1137h-39c-14 0 -6 -20 -12 -27s-24 -1 -24 -13l1 -41c0 -12 19 -6 25 -13
c7 -7 -2 -27 12 -27h39c14 0 6 20 12 27s24 1 24 13l-1 41c0 12 -18 6 -24 13c-7 7 1 27 -13 27zM296 1196c34 0 16 -49 34 -66s68 2 69 -33l1 -41c1 -35 -49 -16 -67 -33c-17 -17 2 -66 -32 -66h-40c-34 0 -16 49 -34 66s-68 -2 -69 33l-1 41c-1 35 49 16 67 33
c17 17 -2 66 32 66h40z" />
    <glyph glyph-name="m" unicode="m" horiz-adv-x="950" 
d="M79 0l-16 765h97l3 -169c22 6 45 13 56 29c7 11 9 24 9 40c0 19 -2 41 -2 59c0 29 7 51 42 51h89c39 0 44 -27 44 -59c0 -14 -1 -29 -1 -43c0 -19 2 -36 11 -48c16 -23 53 -24 79 -37c25 13 64 14 80 37c7 11 10 24 10 40c0 19 -3 41 -3 59c0 29 7 51 42 51h89
c39 0 45 -27 45 -59c0 -14 -2 -29 -2 -43c0 -19 2 -36 11 -48c25 -35 104 -21 105 -74l11 -551h-97l-11 551c0 22 -31 26 -39 45c-2 5 -3 10 -3 16c0 16 6 36 6 51c0 14 -5 24 -24 24h-89c-24 0 -27 -18 -27 -38v-21c0 -12 -1 -24 -7 -32c-17 -22 -72 -8 -71 -45l11 -551
h-97l-11 551c0 22 -32 26 -40 45c-2 5 -2 10 -2 16c0 16 6 36 6 51c0 14 -5 24 -24 24h-89c-24 0 -27 -18 -27 -38v-21c0 -12 -1 -24 -7 -32c-17 -22 -73 -8 -72 -45l11 -551h-96z" />
    <glyph glyph-name="ograve" unicode="&#xf2;" horiz-adv-x="655" 
d="M142 1167h119l116 -180h-89zM376 687h-125c-29 0 -36 -17 -36 -39c0 -21 7 -46 7 -68c0 -10 -2 -20 -6 -28c-17 -30 -78 -25 -77 -66l5 -207c1 -41 61 -36 79 -66c5 -9 7 -21 7 -33c0 -19 -4 -41 -4 -59c0 -24 7 -43 38 -43h124c29 0 36 17 36 39c0 21 -6 46 -6 68
c0 10 2 20 6 28c17 30 77 25 76 66l-4 207c-1 41 -61 36 -79 66c-5 9 -7 21 -7 33c0 19 4 41 4 59c0 24 -7 43 -38 43zM374 775c53 0 59 -39 59 -85v-36c0 -28 1 -55 15 -73c35 -47 144 -22 145 -95l4 -207c1 -73 -108 -48 -141 -95c-10 -15 -13 -36 -13 -58s3 -45 3 -66
c0 -39 -9 -70 -56 -70h-125c-53 0 -59 39 -59 85c0 12 1 24 1 36c0 28 -2 55 -16 73c-35 47 -143 22 -144 95l-4 207c-1 73 107 48 140 95c10 15 13 36 13 58s-2 45 -2 66c0 39 9 70 56 70h124z" />
    <glyph glyph-name="Cacute" unicode="&#x106;" horiz-adv-x="884" 
d="M756 249c-38 -6 -78 -11 -99 -36c-52 -61 22 -223 -92 -223h-212c-114 0 -47 162 -102 223c-51 57 -197 11 -199 111l-5 252c-2 100 146 54 195 111c52 61 -22 223 92 223h212c114 0 47 -162 102 -223c22 -25 62 -30 100 -36l-7 -47c-25 33 -97 20 -125 54
c-38 46 16 164 -68 164h-212c-44 0 -49 -32 -49 -69c0 -12 1 -25 1 -37c0 -23 -3 -44 -14 -58c-32 -41 -131 -15 -130 -82l5 -252c1 -67 101 -41 134 -82c38 -46 -16 -164 68 -164h212c44 0 49 32 49 69c0 12 -1 25 -1 37c0 23 3 44 14 58c26 34 99 21 122 54zM489 1147h119
l-139 -180h-89z" />
    <glyph glyph-name="six" unicode="6" horiz-adv-x="642" 
d="M484 735l-7 -38c-17 14 -53 10 -67 28c-22 27 11 97 -39 97h-120l-2 88h120c80 0 33 -113 72 -155c10 -11 26 -17 43 -20zM266 78h120c45 0 15 63 35 87c18 22 75 6 74 44l-3 134c-1 38 -56 21 -75 43c-21 24 6 87 -39 87h-120c-45 0 -15 -63 -35 -87
c-18 -22 -75 -5 -74 -43l3 -134c1 -38 56 -22 75 -44c21 -24 -6 -87 39 -87zM268 -10c-75 0 -34 107 -72 146c-37 38 -140 2 -141 73l-10 469c-1 71 104 37 139 77c37 42 -15 155 65 155l2 -88c-25 0 -28 -17 -28 -38v-27c0 -12 -1 -24 -7 -32c-18 -24 -75 -9 -74 -47
l6 -290c22 6 46 10 58 27c8 11 10 26 10 43s-2 35 -2 51c0 29 6 52 42 52l-5 261l5 -261h120c75 0 34 -107 72 -146c37 -38 140 -1 141 -72l3 -134c1 -71 -103 -35 -138 -73c-36 -39 9 -146 -66 -146h-120z" />
    <glyph glyph-name="egrave" unicode="&#xe8;" horiz-adv-x="648" 
d="M563 153c-34 -8 -82 -1 -105 -24c-36 -36 3 -139 -68 -139h-125c-53 0 -59 39 -59 85c0 12 1 24 1 36c0 28 -2 55 -16 73c-35 47 -143 22 -144 95l-4 207c-1 73 107 48 140 95c10 15 13 36 13 58s-2 45 -2 66c0 39 9 70 56 70h124c53 0 59 -39 59 -85v-36
c0 -28 1 -55 15 -73c35 -47 144 -22 145 -95c1 -49 2 -99 3 -148h-454l2 -59c1 -41 61 -36 79 -66c5 -9 7 -21 7 -33c0 -19 -4 -41 -4 -59c0 -24 7 -43 38 -43h124c41 0 17 59 37 80s78 -1 77 39zM142 1167h119l116 -180h-89zM496 486c-1 41 -61 36 -79 66c-5 9 -7 21 -7 33
c0 19 4 41 4 59c0 24 -7 43 -38 43h-125c-29 0 -36 -17 -36 -39c0 -21 7 -46 7 -68c0 -10 -2 -20 -6 -28c-17 -30 -78 -25 -77 -66l2 -60h356z" />
    <glyph glyph-name="cwm" horiz-adv-x="0" 
d="M119 1c0 -23 -17 -45 -44 -45c-22 0 -43 17 -44 43l-18 900c0 23 17 45 44 45c22 0 43 -17 44 -43z" />
    <glyph glyph-name="hyphen" unicode="-" horiz-adv-x="380" 
d="M46 338l-2 88h275l2 -88h-275z" />
    <glyph glyph-name="scaron" unicode="&#x161;" horiz-adv-x="524" 
d="M42 150l91 21c1 -28 41 -15 55 -31c15 -17 -4 -62 28 -62h89c31 0 11 45 26 62c14 16 54 3 53 31l-1 85c-1 29 -27 48 -51 65l-193 40c-50 35 -78 91 -79 151l-2 89c-1 54 77 29 104 59c28 31 -8 115 51 115h67c60 0 25 -86 54 -117c21 -23 74 -12 97 -31l-86 -26
c0 21 -32 14 -42 28c-4 5 -4 13 -4 21v13c0 13 -2 24 -17 24h-67c-14 0 -17 -9 -17 -21c0 -6 1 -13 1 -19c0 -7 -1 -13 -4 -17c-10 -14 -40 -8 -40 -29l2 -89c1 -27 21 -47 43 -63l193 -40c51 -36 86 -91 87 -153l1 -85c1 -60 -86 -29 -117 -61s3 -120 -58 -120h-88
c-62 0 -29 89 -61 121c-27 27 -95 7 -115 39zM322 1167h88l-103 -180h-118l-111 180h88l80 -103z" />
    <glyph glyph-name="Zacute" unicode="&#x179;" horiz-adv-x="668" 
d="M17 812l-2 88h602l2 -100l-486 -712h501l1 -88h-602l-2 100l486 712h-500zM364 1147h120l-140 -180h-88z" />
    <glyph glyph-name="igrave" unicode="&#xec;" horiz-adv-x="249" 
d="M76 0l-15 765h97l15 -765h-97zM-62 1167h120l116 -180h-89z" />
    <glyph glyph-name="acircumflex" unicode="&#xe2;" horiz-adv-x="616" 
d="M537 0h-97l-2 139c-18 -4 -37 -9 -47 -22c-7 -10 -9 -25 -9 -40c0 -13 1 -26 1 -39c0 -26 -5 -48 -37 -48h-102c-65 0 -32 94 -66 127s-128 -4 -129 62l-2 104c-1 66 94 30 127 63s-5 126 60 126h102c37 0 39 -28 39 -60v-14c0 -20 1 -39 11 -52s29 -18 48 -22l-4 200
c-1 33 -50 29 -65 54c-4 7 -5 16 -5 26c0 15 3 33 3 48c0 20 -6 35 -31 35h-102c-24 0 -29 -13 -29 -31c0 -11 2 -24 3 -36l-27 7c2 10 4 21 4 33c0 17 -2 35 -2 51c0 35 7 64 49 64h102c50 0 52 -40 52 -83v-13c0 -28 1 -55 15 -72c32 -41 129 -17 130 -83zM338 384h-102
c-35 0 -13 -50 -30 -68c-16 -17 -63 -1 -62 -33l2 -104c1 -32 47 -16 64 -33c17 -18 -3 -68 32 -68h102c35 0 13 50 30 68c16 17 64 1 63 33l-2 104c-1 32 -47 16 -64 33c-17 18 2 68 -33 68zM278 1089l-76 -102h-87l103 180h118l110 -180h-87z" />
    <glyph glyph-name="M" unicode="M" horiz-adv-x="1015" 
d="M92 0l-18 900h100l332 -777l300 777h100l18 -900h-97l-14 663l-255 -663h-100l-283 660l13 -660h-96z" />
    <glyph glyph-name="N" unicode="N" horiz-adv-x="819" 
d="M92 0l-18 900h100l453 -723l-15 723h97l18 -900h-100l-453 723l14 -723h-96z" />
    <glyph glyph-name="at" unicode="@" horiz-adv-x="878" 
d="M511 364c-21 -8 -34 -19 -34 -47c0 -17 4 -37 4 -54c0 -21 -6 -37 -33 -37h-70c-61 0 -26 87 -56 119c-28 30 -109 4 -110 59l-2 92c-1 55 81 29 108 59c29 32 -10 119 51 119h70c29 0 35 -18 35 -42c0 -14 -2 -29 -2 -43c0 -32 12 -44 35 -53l-2 138h83
c-19 53 16 148 -60 148h-212c-44 0 -49 -32 -49 -69c0 -12 1 -25 1 -37c0 -23 -2 -44 -13 -58c-32 -41 -131 -15 -130 -82l5 -252c1 -67 100 -41 133 -82c38 -46 -16 -164 68 -164h212c27 0 34 25 42 48l35 -18c-22 -45 -15 -118 -75 -118h-212c-114 0 -46 162 -101 223
c-51 57 -197 11 -199 111l-5 252c-2 100 145 54 194 111c52 61 -21 223 93 223h212c114 0 46 -162 101 -223c51 -57 197 -11 199 -111l3 -176c1 -61 -87 -26 -118 -57c-31 -30 3 -117 -57 -117h-141zM441 586h-70c-15 0 -18 -10 -18 -22c0 -7 1 -14 1 -21s-1 -13 -4 -17
c-10 -14 -43 -7 -43 -30l2 -92c0 -23 33 -16 44 -30c4 -5 5 -14 5 -22v-12c0 -14 2 -26 18 -26h70c15 0 18 10 18 22c0 7 -1 14 -1 21s1 13 4 17c11 16 43 6 43 31l-2 91c0 23 -33 16 -44 30c-4 5 -5 14 -5 22v12c0 14 -2 26 -18 26zM602 652l7 -338h44c30 0 12 43 26 58
s56 0 55 28l-4 176c-1 64 -91 43 -128 76z" />
    <glyph glyph-name="idieresis" unicode="&#xef;" horiz-adv-x="249" 
d="M76 0l-15 765h97l15 -765h-97zM-11 1122c22 0 11 -32 23 -44s44 1 44 -22c0 -22 -32 -11 -43 -22c-11 -12 1 -43 -21 -43s-10 31 -22 43s-45 0 -45 23c0 22 33 10 44 21c11 12 -2 44 20 44zM225 1122c22 0 11 -32 23 -44s44 1 44 -22c0 -22 -32 -11 -43 -22
c-11 -12 1 -43 -21 -43s-11 31 -23 43s-44 0 -44 23c0 22 33 10 44 21c11 12 -2 44 20 44z" />
    <glyph glyph-name="colon" unicode=":" horiz-adv-x="306" 
d="M151 126c22 0 10 -31 21 -42s43 1 43 -21c0 -21 -31 -10 -42 -21s2 -42 -20 -42s-10 31 -21 42s-43 0 -43 22c0 21 31 9 42 20s-2 42 20 42zM138 765c22 0 11 -31 22 -42s42 0 42 -22c0 -21 -31 -9 -42 -20s2 -42 -20 -42s-10 31 -21 42s-43 -1 -43 21c0 21 31 10 42 21
s-2 42 20 42z" />
    <glyph glyph-name="l" unicode="l" horiz-adv-x="254" 
d="M79 0l-20 990h97l19 -990h-96z" />
    <glyph glyph-name="Iacute" unicode="&#xcd;" horiz-adv-x="306" 
d="M105 0l-18 900h97l18 -900h-97zM183 1147h120l-139 -180h-89z" />
    <glyph glyph-name="two" unicode="2" 
d="M52 0l-1 88c75 75 149 151 224 226c86 81 175 171 173 290l-2 110c-1 35 -51 17 -69 36s3 72 -34 72h-109c-37 0 -14 -53 -32 -72c-17 -19 -68 -1 -67 -36l-60 43c31 7 74 2 94 22c34 34 -4 131 63 131h109c67 0 33 -97 68 -131c36 -34 132 3 133 -65l3 -110v-7
c0 -151 -111 -268 -222 -371c-46 -46 -91 -92 -137 -138h369l2 -88h-505z" />
    <glyph glyph-name="zero" unicode="0" horiz-adv-x="681" 
d="M384 822h-120c-33 0 -41 -18 -41 -42c0 -27 10 -62 10 -91c0 -10 -1 -19 -4 -27c-15 -35 -73 -44 -72 -86l5 -252c1 -42 58 -51 75 -86c4 -9 6 -20 6 -32c0 -26 -7 -57 -7 -82c0 -27 8 -46 43 -46h120c33 0 42 18 42 42c0 27 -11 62 -11 91c0 10 2 19 5 27
c15 35 72 44 71 86l-5 252c-1 42 -58 51 -75 86c-4 9 -6 20 -6 32c0 26 7 57 7 82c0 27 -8 46 -43 46zM383 910c55 0 63 -39 63 -85c0 -21 -1 -43 -1 -64c0 -26 2 -51 14 -69c33 -52 138 -44 139 -116l5 -252c1 -72 -103 -64 -134 -116c-9 -15 -12 -35 -12 -56
c0 -29 5 -61 5 -89c0 -41 -10 -73 -61 -73h-120c-55 0 -64 39 -64 85c0 21 1 43 1 64c0 26 -2 51 -14 69c-33 52 -137 44 -138 116l-5 252c-1 72 102 64 133 116c9 15 12 35 12 56c0 29 -5 61 -5 89c0 41 10 73 61 73h121z" />
    <glyph glyph-name="g" unicode="g" horiz-adv-x="668" 
d="M488 231c-36 -16 -66 -27 -66 -78c0 -32 10 -69 10 -99c0 -31 -10 -54 -51 -54h-120c-52 0 -58 39 -58 83v38c0 27 -2 53 -15 70c-34 46 -140 23 -141 95l-4 203c-1 72 104 49 137 95c10 14 13 33 13 55s-3 46 -3 67c0 38 8 69 55 69h121c44 0 53 -26 53 -60
c0 -27 -6 -58 -6 -86c0 -17 2 -33 9 -45c12 -20 37 -30 60 -40l-5 221h97l19 -925c1 -71 -104 -40 -138 -82c-13 -16 -15 -42 -15 -68v-22c0 -41 -4 -78 -51 -78h-120c-89 0 -28 128 -76 172l29 32c11 -8 14 -24 14 -42c0 -10 -1 -22 -1 -32c0 -23 4 -42 32 -42h121
c25 0 30 16 30 36c0 14 -2 30 -2 44c0 11 1 22 6 29c17 26 75 14 74 53zM367 687h-120c-28 0 -35 -16 -35 -37s6 -47 6 -69c0 -10 -1 -19 -5 -26c-16 -30 -75 -26 -74 -66l4 -203c1 -40 60 -36 77 -66c5 -9 6 -19 6 -31c0 -19 -4 -41 -4 -59c0 -24 7 -42 37 -42h120
c28 0 36 16 36 37s-7 47 -7 69c0 10 1 19 5 26c16 30 75 26 74 66l-4 203c-1 40 -59 36 -76 66c-5 9 -7 19 -7 31c0 19 4 41 4 59c0 24 -7 42 -37 42z" />
    <glyph glyph-name="Tcedilla" unicode="&#x162;" horiz-adv-x="603" 
d="M-12 812l-2 88h594l2 -88h-249l17 -812h-25l-27 -85h33c47 0 21 -67 45 -91c23 -24 87 0 88 -45l2 -69c1 -45 -65 -21 -87 -45c-23 -24 6 -91 -41 -91h-57c-52 0 -12 83 -57 99l9 26c9 -5 23 -3 29 -11c10 -12 -5 -44 18 -44h57c12 0 13 8 13 18v11c0 6 0 11 3 15
c8 11 35 4 35 22l-1 69c0 18 -27 10 -36 21c-10 12 5 45 -18 45h-129l50 155h-1l-16 812h-249z" />
    <glyph glyph-name="Tcaron" unicode="&#x164;" horiz-adv-x="603" 
d="M-12 812l-2 88h594l2 -88h-249l17 -812h-97l-16 812h-249zM361 1147h88l-103 -180h-118l-110 180h87l80 -102z" />
    <glyph glyph-name="hungarumlaut" unicode="&#x2dd;" horiz-adv-x="275" 
d="M-38 720l99 180h117l-130 -180h-86zM258 900h116l-129 -180h-87z" />
    <glyph glyph-name="Lacute" unicode="&#x139;" horiz-adv-x="603" 
d="M92 0l-18 900h96l17 -812h375l1 -88h-471zM170 1147h120l-140 -180h-88z" />
    <glyph glyph-name="quotesinglbase" unicode="&#x201a;" horiz-adv-x="334" 
d="M166 112h100l-116 -292h-74z" />
    <glyph glyph-name="grave" unicode="`" horiz-adv-x="262" 
d="M-9 900h120l115 -180h-88z" />
    <glyph glyph-name="otilde" unicode="&#xf5;" horiz-adv-x="655" 
d="M205 991h-77c-1 43 61 20 83 42s-2 84 41 84c42 0 76 -34 118 -34c16 0 8 24 16 32c9 8 32 -1 32 16h78c1 -43 -62 -20 -84 -42s3 -84 -40 -84c-42 0 -77 34 -119 34c-16 0 -7 -24 -15 -32c-9 -8 -33 1 -33 -16zM376 687h-125c-29 0 -36 -17 -36 -39c0 -21 7 -46 7 -68
c0 -10 -2 -20 -6 -28c-17 -30 -78 -25 -77 -66l5 -207c1 -41 61 -36 79 -66c5 -9 7 -21 7 -33c0 -19 -4 -41 -4 -59c0 -24 7 -43 38 -43h124c29 0 36 17 36 39c0 21 -6 46 -6 68c0 10 2 20 6 28c17 30 77 25 76 66l-4 207c-1 41 -61 36 -79 66c-5 9 -7 21 -7 33
c0 19 4 41 4 59c0 24 -7 43 -38 43zM374 775c53 0 59 -39 59 -85v-36c0 -28 1 -55 15 -73c35 -47 144 -22 145 -95l4 -207c1 -73 -108 -48 -141 -95c-10 -15 -13 -36 -13 -58s3 -45 3 -66c0 -39 -9 -70 -56 -70h-125c-53 0 -59 39 -59 85c0 12 1 24 1 36c0 28 -2 55 -16 73
c-35 47 -143 22 -144 95l-4 207c-1 73 107 48 140 95c10 15 13 36 13 58s-2 45 -2 66c0 39 9 70 56 70h124z" />
    <glyph glyph-name="uhungarumlaut" unicode="&#x171;" 
d="M443 168c-30 -11 -51 -22 -51 -62c0 -23 6 -49 6 -71c0 -26 -8 -45 -41 -45h-98c-77 0 -29 109 -64 150c-32 38 -126 10 -127 74l-11 551h97l11 -551c1 -31 46 -24 61 -45c5 -7 6 -16 6 -27c0 -10 -1 -20 -1 -30c0 -19 4 -34 27 -34h97c21 0 25 12 25 29
c0 12 -2 26 -2 39c0 9 1 17 5 23c14 21 61 14 60 45l-11 551h96l16 -765h-97zM132 987l99 180h117l-129 -180h-87zM428 1167h117l-130 -180h-86z" />
    <glyph glyph-name="dcroat" unicode="&#x111;" horiz-adv-x="688" 
d="M488 224c-35 -17 -65 -27 -65 -78c0 -32 10 -71 10 -102s-11 -54 -52 -54h-120c-52 0 -58 38 -58 82v43c0 27 -2 52 -15 69c-34 46 -140 23 -141 95l-4 207c-1 72 104 49 137 95c10 14 13 35 13 56c0 23 -3 47 -3 69c0 38 8 69 55 69h60l-1 61h172l-3 154h97l3 -154h85
l2 -88h-85l15 -748h-97zM367 687h-120c-29 0 -36 -16 -36 -38c0 -21 7 -48 7 -70c0 -10 -1 -20 -5 -27c-16 -30 -75 -26 -74 -66l5 -207c1 -40 59 -36 76 -66c5 -9 6 -20 6 -32c0 -20 -4 -42 -4 -61c0 -24 6 -42 37 -42h121c29 0 35 16 35 38c0 21 -7 48 -7 70
c0 10 2 20 6 27c16 30 73 26 73 65c0 69 -3 139 -4 208c-1 40 -59 36 -76 66c-5 9 -7 20 -7 32c0 20 5 42 5 61c0 24 -7 42 -38 42zM482 541l-4 207h-64c4 -9 5 -21 5 -33c0 -27 -6 -60 -6 -89c0 -17 2 -33 9 -45c12 -20 37 -29 60 -40z" />
    <glyph glyph-name="K" unicode="K" horiz-adv-x="694" 
d="M74 900h96l8 -378c46 48 92 97 138 145l223 233h129l-305 -318l323 -582h-114l-280 506l-111 -116l7 -390h-96z" />
    <glyph glyph-name="zdotaccent" unicode="&#x17c;" horiz-adv-x="485" 
d="M19 677l-2 88h420l2 -100l-308 -577h319l2 -88h-419l-2 100l307 577h-319zM225 1122c22 0 11 -32 23 -44s44 1 44 -22c0 -22 -32 -11 -43 -22c-11 -12 1 -43 -21 -43s-11 31 -23 43s-44 0 -44 23c0 22 33 10 44 21c11 12 -2 44 20 44z" />
    <glyph glyph-name="period" unicode="." horiz-adv-x="306" 
d="M151 126c22 0 10 -31 21 -42s43 1 43 -21c0 -21 -31 -10 -42 -21s2 -42 -20 -42s-10 31 -21 42s-43 0 -43 22c0 21 31 9 42 20s-2 42 20 42z" />
    <glyph glyph-name="k" unicode="k" horiz-adv-x="570" 
d="M65 990h97l12 -608l261 383h106l-214 -315l230 -450h-111l-182 357l-87 -127l5 -230h-97z" />
    <glyph glyph-name="W" unicode="W" horiz-adv-x="1022" 
d="M-5 900h102l258 -751l99 326l-146 425h103l91 -267l81 267h94l-125 -412l117 -339l227 751h95l-273 -900h-100l-114 329l-100 -329h-100z" />
    <glyph glyph-name="X" unicode="X" horiz-adv-x="648" 
d="M11 900h111l193 -335l183 335h104l-233 -427l273 -473h-111l-216 374l-205 -374h-103l254 466z" />
    <glyph glyph-name="ogonek" unicode="&#x2db;" horiz-adv-x="262" 
d="M147 70l41 -70l-87 -138c-17 -28 -48 -49 -47 -83l2 -69c0 -18 26 -11 35 -22c10 -12 -4 -44 19 -44h56c12 0 14 8 14 18c0 3 -1 7 -1 11c0 28 27 15 37 30l-17 -71c-2 -27 1 -58 -31 -58h-57c-47 0 -21 67 -45 91c-23 24 -87 0 -88 45l-1 69c-1 61 53 103 83 154z
M216 -297l2 7c0 -3 -1 -5 -2 -7z" />
    <glyph glyph-name="agrave" unicode="&#xe0;" horiz-adv-x="616" 
d="M537 0h-97l-2 139c-18 -4 -37 -9 -47 -22c-7 -10 -9 -25 -9 -40c0 -13 1 -26 1 -39c0 -26 -5 -48 -37 -48h-102c-65 0 -32 94 -66 127s-128 -4 -129 62l-2 104c-1 66 94 30 127 63s-5 126 60 126h102c37 0 39 -28 39 -60v-14c0 -20 1 -39 11 -52s29 -18 48 -22l-4 200
c-1 33 -50 29 -65 54c-4 7 -5 16 -5 26c0 15 3 33 3 48c0 20 -6 35 -31 35h-102c-24 0 -29 -13 -29 -31c0 -11 2 -24 3 -36l-27 7c2 10 4 21 4 33c0 17 -2 35 -2 51c0 35 7 64 49 64h102c50 0 52 -40 52 -83v-13c0 -28 1 -55 15 -72c32 -41 129 -17 130 -83zM109 1167h120
l115 -180h-88zM338 384h-102c-35 0 -13 -50 -30 -68c-16 -17 -63 -1 -62 -33l2 -104c1 -32 47 -16 64 -33c17 -18 -3 -68 32 -68h102c35 0 13 50 30 68c16 17 64 1 63 33l-2 104c-1 32 -47 16 -64 33c-17 18 2 68 -33 68z" />
    <glyph glyph-name="aogonek" unicode="&#x105;" horiz-adv-x="616" 
d="M177 627c2 10 4 21 4 33c0 17 -2 35 -2 51c0 35 7 64 49 64h102c50 0 52 -40 52 -83v-13c0 -28 1 -55 15 -72c32 -41 129 -17 130 -83l10 -519l3 -5l-87 -138c-17 -28 -48 -49 -47 -83l2 -69c0 -18 26 -11 35 -22c10 -12 -4 -44 19 -44h56c12 0 13 8 13 18v11
c0 28 27 15 37 30l-18 -71c-2 -27 2 -58 -30 -58h-57c-47 0 -21 67 -45 91c-23 24 -87 0 -88 45l-1 69c-1 61 52 103 82 154l43 67h-14l-2 139c-18 -4 -37 -9 -47 -22c-7 -10 -9 -25 -9 -40c0 -13 1 -26 1 -39c0 -26 -5 -48 -37 -48h-102c-65 0 -32 94 -66 127
s-128 -4 -129 62l-2 104c-1 66 94 30 127 63s-5 126 60 126h102c37 0 39 -28 39 -60v-14c0 -20 1 -39 11 -52s29 -18 48 -22l-4 200c-1 33 -50 29 -65 54c-4 7 -5 16 -5 26c0 15 3 33 3 48c0 20 -6 35 -31 35h-102c-24 0 -29 -13 -29 -31c0 -11 2 -24 3 -36zM338 384h-102
c-35 0 -13 -50 -30 -68c-16 -17 -63 -1 -62 -33l2 -104c1 -32 47 -16 64 -33c17 -18 -3 -68 32 -68h102c35 0 13 50 30 68c16 17 64 1 63 33l-2 104c-1 32 -47 16 -64 33c-17 18 2 68 -33 68zM568 -297l2 7c0 -3 -1 -5 -2 -7z" />
    <glyph glyph-name="quotedbl" unicode="&#x22;" horiz-adv-x="386" 
d="M21 900h97l6 -292h-97zM329 900l6 -292h-97l-6 292h97z" />
    <glyph glyph-name="t" unicode="t" horiz-adv-x="354" 
d="M-3 677l-1 88h117l-4 225h96l5 -225h117l2 -88h-117l13 -677h-97l-13 677h-118z" />
    <glyph glyph-name="question" unicode="?" horiz-adv-x="576" 
d="M221 261l-4 233h97c21 0 22 16 22 34v9c0 11 0 23 6 30c15 18 61 4 60 35l-2 112c-1 31 -46 17 -61 35c-17 20 5 73 -32 73h-97c-21 0 -22 -16 -22 -34v-9c0 -11 0 -23 -6 -30c-15 -18 -61 -4 -60 -35l-53 42c28 5 63 5 80 23c33 35 -8 131 59 131h98
c67 0 30 -96 64 -131c33 -34 126 -1 127 -65l2 -112c1 -64 -92 -31 -124 -65c-33 -35 8 -131 -59 -131h-1l3 -145h-97zM273 126c22 0 10 -31 21 -42s43 1 43 -21c0 -21 -31 -10 -42 -21s2 -42 -20 -42s-11 31 -22 42s-42 0 -42 22c0 21 31 9 42 20s-2 42 20 42z" />
    <glyph glyph-name="Adieresis" unicode="&#xc4;" horiz-adv-x="727" 
d="M13 0l283 900h100l318 -900h-103l-101 285h-314l-90 -285h-93zM229 1102c22 0 10 -31 22 -43s44 1 44 -22c0 -22 -32 -11 -43 -22c-11 -12 1 -44 -21 -44s-10 32 -22 44s-45 -1 -45 22c0 22 33 11 44 22c11 12 -1 43 21 43zM464 1102c22 0 11 -31 23 -43s44 1 44 -22
c0 -22 -32 -11 -43 -22c-11 -12 1 -44 -21 -44s-11 32 -23 44s-44 -1 -44 22c0 22 33 11 44 22c11 12 -2 43 20 43zM479 373l-135 383l-121 -383h256z" />
    <glyph glyph-name="five" unicode="5" horiz-adv-x="629" 
d="M70 900h440l2 -88h-344l6 -269c24 25 57 41 95 41h103c78 0 31 -110 67 -151c33 -38 129 -9 130 -75l3 -142c1 -71 -103 -36 -138 -75c-37 -41 11 -151 -66 -151h-120c-71 0 -40 93 -64 140l32 16c3 -30 -6 -68 30 -68h120c25 0 28 19 28 40v19c0 13 1 25 7 33
c18 23 75 8 74 46l-3 142c-1 33 -49 24 -65 46c-6 8 -6 18 -6 30v25c0 20 -3 37 -27 37h-104c-48 0 -88 -35 -94 -83h-97c-3 162 -6 325 -9 487z" />
    <glyph glyph-name="Aring" unicode="&#xc5;" horiz-adv-x="727" 
d="M13 0l283 900h100l318 -900h-103l-101 285h-314l-90 -285h-93zM479 373l-135 383l-121 -383h256zM366 1118h-40c-14 0 -5 -20 -11 -27s-24 -1 -24 -13l1 -41c0 -12 18 -6 24 -13c7 -7 -1 -27 13 -27h39c14 0 6 20 12 27s24 1 24 13l-1 41c0 12 -19 6 -25 13
c-7 7 2 27 -12 27zM365 1177c34 0 16 -49 34 -66s68 2 69 -33v-41c1 -35 -49 -16 -67 -33c-17 -17 2 -66 -32 -66h-39c-34 0 -17 49 -35 66s-67 -2 -68 33l-1 41c-1 35 49 16 67 33c17 17 -2 66 32 66h40z" />
    <glyph glyph-name="z" unicode="z" horiz-adv-x="485" 
d="M19 677l-2 88h420l2 -100l-308 -577h319l2 -88h-419l-2 100l307 577h-319z" />
    <glyph glyph-name="Ccedilla" unicode="&#xc7;" horiz-adv-x="884" 
d="M756 249c-38 -6 -78 -11 -99 -36c-52 -61 22 -223 -92 -223h-86l-23 -75h33c47 0 20 -67 44 -91c23 -24 87 0 88 -45l2 -69c1 -45 -65 -21 -87 -45c-23 -24 6 -91 -41 -91h-56c-52 0 -13 83 -58 99l9 26c9 -5 23 -3 29 -11c10 -12 -5 -44 18 -44h57c12 0 13 8 13 18v11
c0 6 0 11 3 15c8 11 35 4 35 22l-1 69c0 18 -27 10 -36 21c-10 12 5 45 -18 45h-129l47 145h-55c-114 0 -47 162 -102 223c-51 57 -197 11 -199 111l-5 252c-2 100 146 54 195 111c52 61 -22 223 92 223h212c114 0 47 -162 102 -223c22 -25 62 -30 100 -36l-7 -47
c-25 33 -97 20 -125 54c-38 46 16 164 -68 164h-212c-44 0 -49 -32 -49 -69c0 -12 1 -25 1 -37c0 -23 -3 -44 -14 -58c-32 -41 -131 -15 -130 -82l5 -252c1 -67 101 -41 134 -82c38 -46 -16 -164 68 -164h212c44 0 49 32 49 69c0 12 -1 25 -1 37c0 23 3 44 14 58
c26 34 99 21 122 54z" />
    <glyph glyph-name="Idotaccent" unicode="&#x130;" horiz-adv-x="306" 
d="M105 0l-18 900h97l18 -900h-97zM136 1102c22 0 11 -31 23 -43s44 1 44 -22c0 -22 -33 -11 -44 -22c-11 -12 2 -44 -20 -44s-11 32 -23 44s-44 -1 -44 22c0 22 32 11 43 22c11 12 -1 43 21 43z" />
    <glyph glyph-name="sterling" unicode="&#xa3;" horiz-adv-x="629" 
d="M41 478l-2 88h98l-3 157c-1 59 86 30 115 62c31 34 -9 125 55 125h83c64 0 27 -91 59 -125c18 -19 53 -17 81 -23l-60 -39c-1 26 -39 17 -52 33c-15 19 7 66 -27 66h-83c-17 0 -19 -12 -19 -26v-18c0 -8 -1 -17 -5 -22c-12 -16 -52 -7 -51 -33l4 -157h246l2 -88h-247
l5 -247c1 -67 -95 -29 -129 -63c-17 -17 -15 -51 -19 -80h485l2 -88h-529c-1 29 -1 59 -2 88c22 0 27 14 27 32c0 12 -2 26 -2 39c0 10 2 18 6 25c15 23 65 13 64 47l-4 247h-98z" />
    <glyph glyph-name="eight" unicode="8" horiz-adv-x="655" 
d="M266 78h120c40 0 16 56 35 77c19 20 75 1 74 39l-2 119c-1 38 -56 18 -76 38c-20 21 2 77 -38 77h-120c-40 0 -16 -56 -35 -77c-19 -20 -76 0 -75 -38l3 -119c1 -38 55 -19 75 -39c20 -21 -1 -77 39 -77zM268 -10c-70 0 -35 100 -72 136c-38 36 -140 -3 -141 68l-2 119
c-1 71 102 31 138 67c27 27 11 91 32 121c-5 23 -5 53 -21 67c-30 27 -110 -7 -111 49l-2 104c-1 56 82 30 109 62c29 34 -14 127 51 127h120c65 0 26 -93 57 -127c28 -32 110 -6 111 -62l2 -104c1 -56 -80 -22 -109 -49c-15 -14 -13 -44 -18 -67c22 -30 9 -94 37 -121
c38 -36 140 4 141 -67l2 -119c1 -71 -102 -32 -138 -68s4 -136 -66 -136h-120zM377 516c16 0 19 10 19 22c0 9 -2 20 -2 29c0 7 1 13 4 17c10 16 45 10 45 33l-2 104c0 23 -35 17 -46 33c-4 5 -5 13 -5 21c0 7 1 15 1 22c0 14 -3 25 -20 25h-120c-16 0 -19 -10 -19 -22
c0 -9 2 -20 2 -29c0 -7 -1 -13 -4 -17c-10 -16 -44 -10 -44 -33l2 -104c0 -23 34 -17 45 -33c4 -5 5 -13 5 -21c0 -7 -1 -14 -1 -21c0 -14 3 -26 20 -26h120z" />
    <glyph glyph-name="Ntilde" unicode="&#xd1;" horiz-adv-x="819" 
d="M92 0l-18 900h100l453 -723l-15 723h97l18 -900h-100l-453 723l14 -723h-96zM287 972h-78c-1 43 62 20 84 42s-3 84 40 84c42 0 77 -34 119 -34c16 0 8 24 16 32c9 8 32 -2 32 15h78c1 -43 -62 -19 -84 -41s3 -85 -40 -85c-42 0 -77 35 -119 35c-16 0 -8 -24 -16 -32
c-9 -8 -32 1 -32 -16z" />
    <glyph glyph-name="Z" unicode="Z" horiz-adv-x="668" 
d="M17 812l-2 88h602l2 -100l-486 -712h501l1 -88h-602l-2 100l486 712h-500z" />
    <glyph glyph-name="T" unicode="T" horiz-adv-x="603" 
d="M-12 812l-2 88h594l2 -88h-249l17 -812h-97l-16 812h-249z" />
    <glyph glyph-name="parenleft" unicode="(" horiz-adv-x="360" 
d="M270 -402c-6 16 -9 34 -9 55c0 52 15 116 15 171c0 29 -4 54 -16 75c-44 76 -200 55 -202 159l-9 434c-2 104 154 83 195 159c10 18 14 40 14 64c0 60 -22 135 -22 192c0 17 2 32 7 45l107 -40h-20c-57 0 -73 -29 -73 -69c0 -51 26 -122 26 -177c0 -16 -3 -31 -8 -43
c-26 -58 -130 -58 -129 -131l9 -434c1 -73 106 -73 134 -131c7 -14 10 -31 10 -50c0 -52 -20 -116 -20 -164c0 -44 16 -75 76 -75h20z" />
    <glyph glyph-name="Eacute" unicode="&#xc9;" horiz-adv-x="609" 
d="M92 0l-18 900h471l2 -88h-375l5 -246h327l1 -88h-326l8 -390h375l1 -88h-471zM358 1147h119l-139 -180h-89z" />
    <glyph glyph-name="zcaron" unicode="&#x17e;" horiz-adv-x="485" 
d="M19 677l-2 88h420l2 -100l-308 -577h319l2 -88h-419l-2 100l307 577h-319zM303 1167h87l-103 -180h-118l-110 180h87l80 -103z" />
    <glyph glyph-name="IJ" unicode="&#x132;" horiz-adv-x="793" 
d="M689 900l14 -703c1 -65 -94 -32 -126 -68c-33 -37 11 -139 -60 -139h-100c-62 0 -39 78 -56 122l29 11c0 -22 -1 -45 25 -45h101c21 0 23 15 23 32v21c0 10 1 20 6 27c15 20 63 7 62 39l-14 703h96zM105 0l-18 900h97l18 -900h-97z" />
    <glyph glyph-name="guilsinglleft" unicode="&#x2039;" horiz-adv-x="360" 
d="M152 382l149 -382h-101l-149 382l134 383h101z" />
    <glyph glyph-name="quotedblbase" unicode="&#x201e;" horiz-adv-x="603" 
d="M101 -180l89 292h100l-115 -292h-74zM416 112h100l-115 -292h-74z" />
    <glyph glyph-name="abreve" unicode="&#x103;" horiz-adv-x="616" 
d="M537 0h-97l-2 139c-18 -4 -37 -9 -47 -22c-7 -10 -9 -25 -9 -40c0 -13 1 -26 1 -39c0 -26 -5 -48 -37 -48h-102c-65 0 -32 94 -66 127s-128 -4 -129 62l-2 104c-1 66 94 30 127 63s-5 126 60 126h102c37 0 39 -28 39 -60v-14c0 -20 1 -39 11 -52s29 -18 48 -22l-4 200
c-1 33 -50 29 -65 54c-4 7 -5 16 -5 26c0 15 3 33 3 48c0 20 -6 35 -31 35h-102c-24 0 -29 -13 -29 -31c0 -11 2 -24 3 -36l-27 7c2 10 4 21 4 33c0 17 -2 35 -2 51c0 35 7 64 49 64h102c50 0 52 -40 52 -83v-13c0 -28 1 -55 15 -72c32 -41 129 -17 130 -83zM462 1174l1 -52
c1 -51 -72 -19 -98 -43c-25 -22 -3 -86 -47 -86h-76c-44 0 -25 64 -50 86c-27 24 -99 -8 -100 43l-1 52h78l1 -52c0 -12 8 -14 18 -14h14c6 0 11 0 15 -3c11 -8 6 -34 24 -34h75c18 0 12 26 23 34c4 3 9 3 15 3h14c10 0 18 2 18 14l-1 52h77zM338 384h-102
c-35 0 -13 -50 -30 -68c-16 -17 -63 -1 -62 -33l2 -104c1 -32 47 -16 64 -33c17 -18 -3 -68 32 -68h102c35 0 13 50 30 68c16 17 64 1 63 33l-2 104c-1 32 -47 16 -64 33c-17 18 2 68 -33 68z" />
    <glyph glyph-name="G" unicode="G" horiz-adv-x="937" 
d="M858 0h-97l-4 218c-39 -11 -91 -9 -115 -37c-44 -52 21 -191 -77 -191h-212c-114 0 -47 162 -102 223c-51 57 -197 11 -199 111l-5 252c-2 100 146 54 195 111c52 61 -22 223 92 223h212c111 0 51 -152 96 -217l-33 -23c-22 52 17 152 -61 152h-212
c-44 0 -49 -32 -49 -69c0 -12 1 -25 1 -37c0 -23 -3 -44 -14 -58c-32 -41 -131 -15 -130 -82l5 -252c1 -67 101 -41 134 -82c38 -46 -16 -164 68 -164h212c67 0 28 97 62 132s132 -3 131 64l-4 204h-303l-2 88h400z" />
    <glyph glyph-name="h" unicode="h" horiz-adv-x="596" 
d="M85 0l-20 990h97l8 -393c19 7 39 13 48 28c6 10 7 22 7 36c0 22 -4 46 -4 67c0 27 7 47 41 47h86c40 0 45 -29 45 -63c0 -11 -1 -22 -1 -34c0 -20 2 -40 12 -53c26 -36 108 -19 109 -74l11 -551h-97l-11 551c0 24 -34 26 -43 45c-2 5 -4 10 -4 17c0 15 5 34 5 49
s-4 25 -24 25h-86c-22 0 -26 -14 -26 -31c0 -11 2 -24 2 -35c0 -10 -2 -19 -6 -25c-15 -22 -64 -12 -63 -45l11 -551h-97z" />
    <glyph glyph-name="aacute" unicode="&#xe1;" horiz-adv-x="616" 
d="M537 0h-97l-2 139c-18 -4 -37 -9 -47 -22c-7 -10 -9 -25 -9 -40c0 -13 1 -26 1 -39c0 -26 -5 -48 -37 -48h-102c-65 0 -32 94 -66 127s-128 -4 -129 62l-2 104c-1 66 94 30 127 63s-5 126 60 126h102c37 0 39 -28 39 -60v-14c0 -20 1 -39 11 -52s29 -18 48 -22l-4 200
c-1 33 -50 29 -65 54c-4 7 -5 16 -5 26c0 15 3 33 3 48c0 20 -6 35 -31 35h-102c-24 0 -29 -13 -29 -31c0 -11 2 -24 3 -36l-27 7c2 10 4 21 4 33c0 17 -2 35 -2 51c0 35 7 64 49 64h102c50 0 52 -40 52 -83v-13c0 -28 1 -55 15 -72c32 -41 129 -17 130 -83zM325 1167h120
l-140 -180h-89zM338 384h-102c-35 0 -13 -50 -30 -68c-16 -17 -63 -1 -62 -33l2 -104c1 -32 47 -16 64 -33c17 -18 -3 -68 32 -68h102c35 0 13 50 30 68c16 17 64 1 63 33l-2 104c-1 32 -47 16 -64 33c-17 18 2 68 -33 68z" />
    <glyph glyph-name="eacute" unicode="&#xe9;" horiz-adv-x="648" 
d="M563 153c-34 -8 -82 -1 -105 -24c-36 -36 3 -139 -68 -139h-125c-53 0 -59 39 -59 85c0 12 1 24 1 36c0 28 -2 55 -16 73c-35 47 -143 22 -144 95l-4 207c-1 73 107 48 140 95c10 15 13 36 13 58s-2 45 -2 66c0 39 9 70 56 70h124c53 0 59 -39 59 -85v-36
c0 -28 1 -55 15 -73c35 -47 144 -22 145 -95c1 -49 2 -99 3 -148h-454l2 -59c1 -41 61 -36 79 -66c5 -9 7 -21 7 -33c0 -19 -4 -41 -4 -59c0 -24 7 -43 38 -43h124c41 0 17 59 37 80s78 -1 77 39zM358 1167h119l-139 -180h-89zM496 486c-1 41 -61 36 -79 66
c-5 9 -7 21 -7 33c0 19 4 41 4 59c0 24 -7 43 -38 43h-125c-29 0 -36 -17 -36 -39c0 -21 7 -46 7 -68c0 -10 -2 -20 -6 -28c-17 -30 -78 -25 -77 -66l2 -60h356z" />
    <glyph glyph-name="Scaron" unicode="&#x160;" horiz-adv-x="681" 
d="M56 168l89 27c1 -42 61 -18 83 -39c22 -20 2 -78 42 -78h132c39 0 18 58 39 78c21 21 82 -2 81 39l-3 107c-1 36 -35 59 -68 77l-287 63c-58 32 -92 94 -93 160l-2 112c-1 67 97 31 131 66c34 34 -2 130 64 130h110c67 0 32 -97 68 -131c27 -26 91 -11 120 -32l-89 -16
c-15 11 -48 4 -62 18c-19 19 2 73 -35 73h-110c-37 0 -15 -53 -33 -72c-17 -19 -68 -2 -67 -36l2 -112c1 -30 17 -57 43 -72l287 -63c64 -35 117 -94 118 -165l2 -107c1 -74 -106 -32 -144 -69c-37 -35 -2 -136 -71 -136h-131c-70 0 -36 102 -75 137c-34 31 -116 4 -141 41z
M398 1147h87l-103 -180h-118l-110 180h87l80 -102z" />
    <glyph glyph-name="greater" unicode="&#x3e;" horiz-adv-x="642" 
d="M494 382l-455 284l-2 110l544 -338l2 -111l-530 -338l-3 110z" />
    <glyph glyph-name="oe" unicode="&#x153;" horiz-adv-x="1035" 
d="M944 153c-31 -6 -72 -3 -92 -24c-35 -37 7 -139 -64 -139h-111c-50 0 -58 35 -58 77c0 17 1 35 1 53c0 24 -3 48 -14 64c-18 25 -55 30 -86 41c-31 -11 -69 -16 -86 -41c-9 -13 -11 -32 -11 -52c0 -25 3 -52 3 -76c0 -37 -8 -66 -54 -66h-112c-50 0 -58 35 -58 77
c0 17 2 35 2 53c0 24 -3 48 -14 64c-33 46 -136 26 -137 95l-4 207c-1 69 102 49 133 95c9 13 11 32 11 52c0 25 -3 52 -3 76c0 37 8 66 54 66h112c50 0 58 -35 58 -77c0 -17 -2 -35 -2 -53c0 -24 3 -48 14 -64c18 -25 56 -30 87 -41c31 11 68 16 85 41c9 13 12 32 12 52
c0 25 -4 52 -4 76c0 37 9 66 55 66h112c50 0 57 -35 57 -77c0 -17 -1 -35 -1 -53c0 -24 2 -48 14 -64c33 -46 135 -26 136 -95c1 -49 2 -99 3 -148h-416l1 -59c1 -38 55 -37 71 -66c4 -8 6 -18 6 -29c0 -21 -6 -46 -6 -66c0 -23 7 -40 37 -40h112c24 0 24 19 24 40
c0 15 0 31 8 40c17 20 70 3 69 39zM358 687h-112c-28 0 -35 -15 -35 -36c0 -22 8 -50 8 -74c0 -9 -2 -18 -5 -25c-15 -29 -69 -28 -68 -66l4 -207c1 -38 55 -37 71 -66c4 -8 6 -18 6 -29c0 -21 -6 -46 -6 -66c0 -23 7 -40 37 -40h112c28 0 35 15 35 36c0 22 -8 50 -8 74
c0 9 2 18 5 25c15 29 69 28 68 66l-4 207c-1 38 -55 37 -71 66c-4 8 -6 18 -6 29c0 21 6 46 6 66c0 23 -7 40 -37 40zM563 486l1 -60h320l-1 60c-1 38 -55 37 -71 66c-4 8 -6 18 -6 29c0 21 5 46 5 66c0 23 -6 40 -36 40h-112c-28 0 -36 -15 -36 -36c0 -22 9 -50 9 -74
c0 -9 -2 -18 -5 -25c-15 -29 -69 -28 -68 -66z" />
    <glyph glyph-name="Nacute" unicode="&#x143;" horiz-adv-x="819" 
d="M92 0l-18 900h100l453 -723l-15 723h97l18 -900h-100l-453 723l14 -723h-96zM440 1147h119l-139 -180h-89z" />
    <glyph glyph-name="lacute" unicode="&#x13a;" horiz-adv-x="254" 
d="M79 0l-20 990h97l19 -990h-96zM172 1238h120l-140 -180h-89z" />
    <glyph glyph-name="less" unicode="&#x3c;" horiz-adv-x="642" 
d="M132 382l456 -283l2 -110l-544 338l-2 111l530 338l2 -110z" />
    <glyph glyph-name="asciicircum" unicode="^" horiz-adv-x="707" 
d="M338 785l-191 -425h-107l242 540h108l263 -540h-107z" />
    <glyph glyph-name="seven" unicode="7" 
d="M36 812l-2 88h505l2 -100l-303 -800h-100l307 812h-409z" />
    <glyph glyph-name="Ocircumflex" unicode="&#xd4;" horiz-adv-x="917" 
d="M548 822h-212c-44 0 -49 -32 -49 -69c0 -12 1 -25 1 -37c0 -23 -3 -44 -14 -58c-32 -41 -131 -15 -130 -82l5 -252c1 -67 101 -41 134 -82c38 -46 -16 -164 68 -164h212c44 0 49 32 49 69c0 12 -1 25 -1 37c0 23 3 44 14 58c32 41 131 15 130 82l-5 252
c-1 67 -101 41 -134 82c-38 46 16 164 -68 164zM546 910c114 0 47 -162 102 -223c51 -57 197 -11 199 -111l5 -252c2 -100 -146 -54 -195 -111c-52 -61 22 -223 -92 -223h-212c-114 0 -47 162 -102 223c-51 57 -197 11 -199 111l-5 252c-2 100 146 54 195 111
c52 61 -22 223 92 223h212zM442 1070l-76 -103h-88l103 180h119l110 -180h-88z" />
    <glyph glyph-name="F" unicode="F" horiz-adv-x="589" 
d="M92 0l-18 900h471l2 -88h-375l5 -246h327l1 -88h-326l9 -478h-96z" />
    <glyph glyph-name="tilde" unicode="&#x2dc;" horiz-adv-x="275" 
d="M15 724h-77c-1 43 62 20 84 42s-3 84 40 84c42 0 76 -34 118 -34c16 0 8 24 16 32c9 8 32 -1 32 16h78c1 -43 -62 -20 -84 -42s3 -84 -40 -84c-42 0 -77 34 -119 34c-16 0 -7 -24 -15 -32c-9 -8 -33 1 -33 -16z" />
    <glyph glyph-name="iacute" unicode="&#xed;" horiz-adv-x="249" 
d="M76 0l-15 765h97l15 -765h-97zM155 1167h119l-139 -180h-89z" />
    <glyph glyph-name="Otilde" unicode="&#xd5;" horiz-adv-x="917" 
d="M336 972h-77c-1 43 61 20 83 42s-2 84 41 84c42 0 76 -34 118 -34c16 0 8 24 16 32c9 8 32 -2 32 15h78c1 -43 -62 -19 -84 -41s3 -85 -40 -85c-42 0 -77 35 -119 35c-16 0 -7 -24 -15 -32c-9 -8 -33 1 -33 -16zM548 822h-212c-44 0 -49 -32 -49 -69c0 -12 1 -25 1 -37
c0 -23 -3 -44 -14 -58c-32 -41 -131 -15 -130 -82l5 -252c1 -67 101 -41 134 -82c38 -46 -16 -164 68 -164h212c44 0 49 32 49 69c0 12 -1 25 -1 37c0 23 3 44 14 58c32 41 131 15 130 82l-5 252c-1 67 -101 41 -134 82c-38 46 16 164 -68 164zM546 910
c114 0 47 -162 102 -223c51 -57 197 -11 199 -111l5 -252c2 -100 -146 -54 -195 -111c-52 -61 22 -223 -92 -223h-212c-114 0 -47 162 -102 223c-51 57 -197 11 -199 111l-5 252c-2 100 146 54 195 111c52 61 -22 223 92 223h212z" />
    <glyph glyph-name="parenright" unicode=")" horiz-adv-x="360" 
d="M140 -402l-116 40h29c55 0 72 26 72 64c0 54 -33 130 -33 189c0 13 1 25 5 36c20 55 107 67 106 131l-8 434c-1 64 -90 76 -112 131c-5 12 -7 27 -7 42c0 56 26 126 26 177c0 41 -16 70 -74 70h-29l113 40c5 -14 8 -30 8 -48c0 -56 -20 -128 -20 -187c0 -25 3 -47 13 -66
c38 -73 176 -65 178 -159l9 -434c2 -94 -137 -86 -172 -159c-8 -16 -11 -35 -11 -56c0 -64 28 -145 28 -206c0 -14 -1 -27 -5 -39z" />
    <glyph glyph-name="germandbls" unicode="&#xdf;" horiz-adv-x="648" 
d="M410 523c22 -31 5 -96 32 -125c35 -36 133 -2 134 -70l3 -127c1 -57 -84 -35 -111 -70c-9 -12 -11 -30 -11 -49c0 -11 1 -23 1 -34c0 -31 -5 -58 -42 -58h-109c-37 0 -42 27 -42 58v35c0 15 -1 31 -6 42l29 13c-1 -13 -5 -27 -5 -38c0 -13 5 -22 22 -22h109
c18 0 22 10 22 24c0 13 -4 29 -4 42c0 6 1 11 4 16c10 18 46 16 46 41l-2 127c-1 35 -52 21 -69 41c-19 23 7 82 -35 82h-110l-2 88h110c12 0 16 5 16 14c0 11 -6 28 -6 40c0 21 25 22 25 39l-2 97c-1 27 -40 14 -54 30c-15 17 4 63 -28 63h-86c-32 0 -11 -46 -25 -63
c-13 -16 -53 -3 -53 -29c0 -243 9 -487 14 -730h-96c-5 243 -15 487 -15 730c0 59 87 26 117 58c31 32 -6 122 56 122h86c62 0 29 -90 61 -122s119 1 120 -59l2 -97v-1c0 -45 -67 -29 -88 -58c-7 -9 -8 -22 -8 -36s1 -29 1 -42z" />
    <glyph glyph-name="a" unicode="a" horiz-adv-x="616" 
d="M537 0h-97l-2 139c-18 -4 -37 -9 -47 -22c-7 -10 -9 -25 -9 -40c0 -13 1 -26 1 -39c0 -26 -5 -48 -37 -48h-102c-65 0 -32 94 -66 127s-128 -4 -129 62l-2 104c-1 66 94 30 127 63s-5 126 60 126h102c37 0 39 -28 39 -60v-14c0 -20 1 -39 11 -52s29 -18 48 -22l-4 200
c-1 33 -50 29 -65 54c-4 7 -5 16 -5 26c0 15 3 33 3 48c0 20 -6 35 -31 35h-102c-24 0 -29 -13 -29 -31c0 -11 2 -24 3 -36l-27 7c2 10 4 21 4 33c0 17 -2 35 -2 51c0 35 7 64 49 64h102c50 0 52 -40 52 -83v-13c0 -28 1 -55 15 -72c32 -41 129 -17 130 -83zM338 384h-102
c-35 0 -13 -50 -30 -68c-16 -17 -63 -1 -62 -33l2 -104c1 -32 47 -16 64 -33c17 -18 -3 -68 32 -68h102c35 0 13 50 30 68c16 17 64 1 63 33l-2 104c-1 32 -47 16 -64 33c-17 18 2 68 -33 68z" />
    <glyph glyph-name="scedilla" unicode="&#x15f;" horiz-adv-x="524" 
d="M42 150l91 21c1 -28 41 -15 55 -31c15 -17 -4 -62 28 -62h89c31 0 11 45 26 62c14 16 54 3 53 31l-1 85c-1 29 -27 48 -51 65l-193 40c-50 35 -78 91 -79 151l-2 89c-1 54 77 29 104 59c28 31 -8 115 51 115h67c60 0 25 -86 54 -117c21 -23 74 -12 97 -31l-86 -26
c0 21 -32 14 -42 28c-4 5 -4 13 -4 21v13c0 13 -2 24 -17 24h-67c-14 0 -17 -9 -17 -21c0 -6 1 -13 1 -19c0 -7 -1 -13 -4 -17c-10 -14 -40 -8 -40 -29l2 -89c1 -27 21 -47 43 -63l193 -40c51 -36 86 -91 87 -153l1 -85c1 -60 -86 -29 -117 -61s3 -120 -58 -120h-23l-24 -75
h33c47 0 21 -67 45 -91c23 -24 87 0 88 -45l1 -69c1 -45 -64 -21 -86 -45c-23 -24 6 -91 -41 -91h-57c-52 0 -13 83 -58 99l9 26c9 -5 23 -3 29 -11c10 -12 -4 -44 19 -44h56c12 0 14 8 14 18c0 3 -1 7 -1 11c0 6 1 11 4 15c8 11 35 4 35 22l-2 69c0 18 -26 10 -35 21
c-10 12 4 45 -19 45h-128l46 145c-52 7 -23 90 -54 121c-27 27 -95 7 -115 39z" />
    <glyph glyph-name="ugrave" unicode="&#xf9;" 
d="M443 168c-30 -11 -51 -22 -51 -62c0 -23 6 -49 6 -71c0 -26 -8 -45 -41 -45h-98c-77 0 -29 109 -64 150c-32 38 -126 10 -127 74l-11 551h97l11 -551c1 -31 46 -24 61 -45c5 -7 6 -16 6 -27c0 -10 -1 -20 -1 -30c0 -19 4 -34 27 -34h97c21 0 25 12 25 29
c0 12 -2 26 -2 39c0 9 1 17 5 23c14 21 61 14 60 45l-11 551h96l16 -765h-97zM122 1167h120l115 -180h-88z" />
    <glyph glyph-name="uacute" unicode="&#xfa;" 
d="M443 168c-30 -11 -51 -22 -51 -62c0 -23 6 -49 6 -71c0 -26 -8 -45 -41 -45h-98c-77 0 -29 109 -64 150c-32 38 -126 10 -127 74l-11 551h97l11 -551c1 -31 46 -24 61 -45c5 -7 6 -16 6 -27c0 -10 -1 -20 -1 -30c0 -19 4 -34 27 -34h97c21 0 25 12 25 29
c0 12 -2 26 -2 39c0 9 1 17 5 23c14 21 61 14 60 45l-11 551h96l16 -765h-97zM338 1167h120l-140 -180h-89z" />
    <glyph glyph-name="Ncaron" unicode="&#x147;" horiz-adv-x="819" 
d="M92 0l-18 900h100l453 -723l-15 723h97l18 -900h-100l-453 723l14 -723h-96zM470 1147h87l-103 -180h-118l-110 180h87l80 -102z" />
    <glyph glyph-name="one" unicode="1" horiz-adv-x="445" 
d="M207 0l-16 783l-152 -137l-2 119l149 135h100l18 -900h-97z" />
    <glyph glyph-name="f" unicode="f" horiz-adv-x="386" 
d="M24 677l-2 88h101l-2 123c-1 44 62 17 85 37c21 19 3 75 41 75h33c30 0 26 -35 34 -59v-53c0 11 -15 3 -21 8c-5 4 -3 16 -11 16h-34c-8 0 -5 -12 -10 -16c-6 -5 -21 3 -21 -8l3 -123h101l2 -88h-101l13 -677h-97l-13 677h-101z" />
    <glyph glyph-name="Ugrave" unicode="&#xd9;" horiz-adv-x="778" 
d="M672 900l14 -676c2 -79 -113 -36 -152 -77c-40 -41 7 -157 -73 -157h-143c-80 0 -38 116 -79 157s-154 -2 -156 77l-13 676h97l13 -676c1 -45 67 -23 90 -48c25 -26 -4 -98 46 -98h143c50 0 19 72 42 98c22 25 89 3 88 48l-13 676h96zM203 1147h120l116 -180h-89z" />
    <glyph glyph-name="macron" unicode="&#xaf;" horiz-adv-x="275" 
d="M-37 748l-1 79h318l2 -79h-319z" />
    <glyph glyph-name="dash" horiz-adv-x="413" 
d="M46 338l-2 88h308l1 -88h-307z" />
    <glyph glyph-name="thorn" unicode="&#xfe;" horiz-adv-x="668" 
d="M165 541c35 17 65 27 65 78c0 32 -10 71 -10 102s11 54 52 54h120c52 0 58 -38 58 -82c0 -14 -1 -29 -1 -43c0 -27 2 -52 15 -69c34 -46 141 -23 142 -95l4 -207c1 -72 -105 -49 -138 -95c-10 -14 -12 -35 -12 -56c0 -23 3 -47 3 -69c0 -38 -9 -69 -56 -69h-120
c-44 0 -53 26 -53 60c0 27 6 60 6 89c0 17 -2 33 -9 45c-12 20 -37 29 -60 40l12 -624h-96l-26 1300h96zM394 687h-121c-29 0 -35 -16 -35 -38c0 -21 6 -48 6 -70c0 -10 -1 -20 -5 -27c-16 -30 -73 -26 -73 -65c0 -69 3 -139 4 -208c1 -40 59 -36 76 -66c5 -9 6 -20 6 -32
c0 -20 -4 -42 -4 -61c0 -24 6 -42 37 -42h121c29 0 35 16 35 38c0 21 -6 48 -6 70c0 10 1 20 5 27c16 30 74 26 73 66l-4 207c-1 40 -59 36 -76 66c-5 9 -6 20 -6 32c0 20 4 42 4 61c0 24 -6 42 -37 42z" />
    <glyph glyph-name="space" unicode=" " horiz-adv-x="393" 
 />
    </font>
</defs>
</svg>
